<?xml version="1.0" standalone="no"?><!DOCTYPE svg PUBLIC "-//W3C//DTD SVG 1.1//EN" "http://www.w3.org/Graphics/SVG/1.1/DTD/svg11.dtd"><svg t="1622183774510" class="icon" viewBox="0 0 1024 1024" version="1.1" xmlns="http://www.w3.org/2000/svg" p-id="67852" xmlns:xlink="http://www.w3.org/1999/xlink" width="200" height="200"><defs><style type="text/css"></style></defs><path d="M512 938.666667C276.352 938.666667 85.333333 747.648 85.333333 512S276.352 85.333333 512 85.333333s426.666667 191.018667 426.666667 426.666667-191.018667 426.666667-426.666667 426.666667z m0-85.333334a341.333333 341.333333 0 1 0 0-682.666666 341.333333 341.333333 0 0 0 0 682.666666z m-42.666667-170.666666H341.333333V341.333333h128V256h85.333334v85.333333h42.666666a106.666667 106.666667 0 0 1 85.333334 170.666667 106.666667 106.666667 0 0 1-85.333334 170.666667h-42.666666v85.333333h-85.333334v-85.333333z m-42.666666-128v42.666666h170.666666a21.333333 21.333333 0 1 0 0-42.666666h-170.666666z m0-128v42.666666h170.666666a21.333333 21.333333 0 1 0 0-42.666666h-170.666666z" p-id="67853"></path></svg>