<?xml version="1.0" standalone="no"?><!DOCTYPE svg PUBLIC "-//W3C//DTD SVG 1.1//EN" "http://www.w3.org/Graphics/SVG/1.1/DTD/svg11.dtd"><svg t="1622694625975" class="icon" viewBox="0 0 1024 1024" version="1.1" xmlns="http://www.w3.org/2000/svg" p-id="12930" data-darkreader-inline-fill="" xmlns:xlink="http://www.w3.org/1999/xlink" width="48" height="48"><defs><style type="text/css"></style></defs><path d="M797.30688 81.79712c0.94208-0.2048 2.29376-1.61792 2.31424-2.47808 0.14336-12.6976 0.1024-25.37472 0.1024-38.35904-12.26752 2.7648-23.81824 5.26336-35.28704 8.06912-1.31072 0.32768-3.1744 2.23232-3.19488 3.44064-0.24576 12.02176-0.14336 24.02304-0.14336 36.98688 12.8-2.68288 24.51456-5.07904 36.20864-7.65952z m-1.31072 860.13952c-7.3728-1.76128-14.80704-3.21536-22.24128-4.73088-4.05504-0.8192-8.11008-1.57696-12.65664-2.4576 0 12.71808-0.08192 24.55552 0.1024 36.39296 0.02048 1.24928 1.26976 3.35872 2.29376 3.60448 11.83744 2.8672 23.73632 5.46816 36.2496 8.2944 0-12.96384 0.08192-25.51808-0.16384-38.05184-0.02048-1.08544-2.17088-2.72384-3.584-3.05152z m-178.74944-31.37536V947.99872l38.31808 5.9392v-0.02048-37.92896a33945.6 33945.6 0 0 0-38.31808-5.4272c0-0.02048 0 0 0 0z m-58.7776-792.20736c0.16384-11.38688 0.1024-22.77376 0.1024-34.63168l-39.07584 4.1984v36.37248c12.43136-1.18784 24.51456-2.29376 36.59776-3.584 0.90112-0.1024 2.37568-1.51552 2.37568-2.3552z m-60.96896 779.61216c-8.78592-0.83968-17.59232-1.4336-26.68544-2.1504h-0.02048v36.08576l38.85056 3.21536V911.36c0-12.16512 0-12.24704-12.14464-13.39392z m263.45472-20.29568c0.22528 1.20832 0.6144 2.27328 1.26976 3.13344 2.37568 3.11296 9.46176 2.72384 14.52032 3.6864 7.49568 1.4336 15.01184 2.72384 22.6304 4.07552v-35.67616l-38.27712-6.32832-0.02048 9.728c0 3.072 0 6.0416 0.04096 8.99072 0.06144 3.9936-0.83968 8.78592-0.16384 12.3904z m48.70144-22.9376V890.61376l37.62176 7.65952v-0.02048-36.61824l-37.62176-6.90176c0-0.02048 0 0 0 0zM809.472 124.3136l37.74464-7.92576-0.02048-36.59776c-11.93984 2.68288-23.6544 5.28384-35.328 8.02816-0.94208 0.22528-2.29376 1.536-2.31424 2.37568-0.14336 11.24352-0.1024 22.46656-0.1024 34.0992h0.02048v0.02048zM519.49568 859.3408v32.13312l38.74816 3.70688v-32.50176-0.02048l-38.74816-3.33824v0.02048zM751.43168 51.89632c-8.66304 1.7408-16.97792 3.39968-25.2928 5.12-13.23008 2.7648-13.23008 2.78528-13.23008 16.42496v25.14944l38.52288-7.20896V51.89632z m-38.4 909.74208c0.02048 1.06496 1.26976 2.8672 2.23232 3.072 11.91936 2.56 23.90016 4.9152 36.18816 7.3728v-39.48544l-38.52288-7.14752c0 12.86144-0.06144 24.53504 0.1024 36.18816zM703.488 97.73056c0.26624-11.81696 0.16384-23.6544 0.16384-36.12672-12.6976 2.21184-24.69888 4.28032-36.67968 6.53312-0.79872 0.14336-1.8432 1.82272-1.8432 2.80576-0.12288 11.63264-0.08192 23.28576-0.08192 35.59424 12.288-1.98656 23.63392-3.72736 34.89792-5.75488 1.37216-0.24576 3.52256-1.96608 3.54304-3.05152z m-194.1504-8.88832l-38.5024 3.29728v35.98336l38.5024-2.90816V88.84224z m58.92096 852.5824l38.42048 5.0176v-37.31456l-38.42048-4.54656v36.84352z m38.42048-863.90784l-38.2976 5.05856v36.84352l38.2976-4.56704V77.5168z m-146.08384 15.38048l-38.54336 2.12992v35.96288l38.54336-2.23232V92.89728z m-38.89152 833.04448c0.02048 1.14688 2.3552 3.01056 3.76832 3.1744 5.67296 0.65536 11.40736 0.79872 17.14176 1.08544l18.06336 0.88064v-35.92192l-39.13728-2.00704c0 11.42784-0.12288 22.1184 0.16384 32.78848z m-97.3824 0.43008h38.54336v-35.18464h-38.54336v35.18464z m48.86528 1.20832h38.48192v-35.2256h-38.48192v35.2256zM362.86464 97.6896h-38.4v35.08224h38.4V97.6896z m-49.09056-0.14336h-38.5024v35.18464h38.5024V97.54624z m447.77472 79.85152l38.03136-6.32832V135.31136l-38.03136 7.0656v35.0208z m48.18944-8.06912l37.49888-7.02464V125.70624l-37.49888 7.70048v35.92192z m-96.60416 15.31904l38.17472-5.65248v-0.02048-34.87744-0.02048l-38.17472 6.22592V184.64768z m38.13376 660.31616l-38.03136-5.61152V873.69728l38.03136 6.16448v-34.89792c0 0.02048 0 0 0 0z m-38.05184 71.7824l38.17472 6.98368v-34.93888l-38.17472-6.36928v34.32448z m38.23616-816.45568c-11.91936 2.17088-23.59296 4.21888-35.20512 6.49216-1.2288 0.22528-3.15392 1.76128-3.1744 2.72384-0.22528 10.48576-0.14336 20.97152-0.14336 32.11264l38.52288-6.4512V100.29056z m-204.04224 720.896c-1.10592-0.1024-2.19136-0.34816-3.29728-0.43008l-24.76032-1.69984v32.07168l38.58432 3.21536c0.34816-1.024 0.57344-1.37216 0.57344-1.72032l0.1024-18.86208c0.02048-11.53024 0-11.53024-11.20256-12.57472zM167.48544 216.1664l-38.44096-2.12992v32.01024l38.44096 2.048v-31.92832zM129.024 818.2784v32.09216l38.5024-2.6624v-0.02048-31.82592-0.02048l-38.5024 2.41664v0.02048z m2.72384-491.58144c11.776 0.16384 23.53152 0.1024 35.6352 0.1024V295.5264H128.75776c0 9.25696-0.08192 19.00544 0.12288 28.75392 0.02048 0.86016 1.86368 2.39616 2.8672 2.41664z m35.69664 8.88832H129.04448v31.744h38.4v-31.744zM129.06496 810.06592l38.5024-2.33472v-31.86688l-38.5024 2.1504v32.0512z m38.5024-394.30144H129.1264v31.72352h38.44096v-31.72352zM129.16736 607.8464h38.46144v-31.06816H129.16736v31.06816zM129.024 648.06912h38.46144v-31.25248H129.024v31.25248z m195.44064-436.40832h38.54336V180.77696h-38.54336v30.88384z m-10.60864-30.96576h-38.58432v31.10912h38.58432V180.69504z m-38.5024 228.31104h38.42048v-30.9248h-38.42048v30.9248z m38.52288 205.94688h-38.58432v30.94528h38.58432v-30.94528z m-87.53152-127.03744h38.6048v-31.15008h-38.6048v31.15008z m49.13152 0.02048h38.4v-30.90432h-38.4v30.90432z m-59.51488-71.22944H177.68448v31.17056h38.27712v-31.17056z m48.90624 119.48032h-38.6048v31.04768h38.6048v-31.04768z m10.62912 30.78144h38.54336v-30.88384h-38.54336v30.88384z m-97.792 40.22272h38.33856v-30.96576H177.70496v30.96576z m38.21568-79.38048v-31.27296H177.80736v31.27296h38.11328zM177.68448 646.9632h38.23616v-30.8224H177.68448v30.8224z m0 200.192l38.21568-1.78176V813.6704l-38.21568 1.72032v31.76448z m48.78336-82.28864h38.52288v-30.76096h-38.52288v30.76096z m-10.69056-547.18464H177.664v31.35488h38.11328v-31.35488z m10.52672 468.11136h38.56384V654.9504H226.304v30.84288z m-48.55808 40.71424h38.17472V695.5008H177.74592v31.00672z m185.05728 85.74976h-38.52288v31.0272h38.52288v-31.0272z m-87.38816 30.98624h38.52288v-30.9248h-38.52288v30.9248z m-97.75104-76.6976h38.23616v-31.0272H177.664v31.0272z m87.28576-467.94752h-38.54336v31.08864h38.54336V298.5984z m-49.11104-41.0624H177.60256v31.15008h38.23616v-31.15008z m-38.01088 119.1936v31.45728h37.92896v-31.45728H177.82784z m48.45568 229.80608h38.74816v-30.74048h-38.74816v30.74048z m38.68672-387.11296h-38.54336v31.15008h38.54336v-31.15008zM177.8688 655.58528v31.29344h38.01088v-31.29344H177.8688z m48.4352 188.43648h38.56384V813.2608H226.304v30.76096z m0.16384 39.71072h38.56384V852.7872h-38.56384v30.94528z m-0.16384-79.23712h38.52288v-30.84288H226.304v30.84288z m49.02912-434.95424h38.56384V338.5344h-38.56384v31.00672z m-48.82432-0.28672h38.31808v-31.19104H226.5088v31.19104z m48.86528 158.1056h38.54336v-30.86336h-38.54336v30.86336z m87.42912 355.36896v-30.94528H324.4032v30.94528h38.4z m-0.06144-741.23264h-38.48192v30.5152h38.48192v-30.5152z m-97.91488 275.74272h-38.5024v31.0272h38.5024v-31.0272z m49.00864 237.24032h-38.44096v30.84288h38.44096v-30.84288z" p-id="12931" fill="#25dcbe" style="--darkreader-inline-fill:#2ba899;" data-darkreader-inline-fill=""></path><path d="M893.76768 655.31904c-2.39616-23.83872-8.72448-46.46912-20.80768-67.44064-3.76832-6.53312-7.70048-10.36288-15.89248-9.58464-6.7584 0.63488-13.68064-0.45056-20.52096-0.75776l-26.76736-1.2288c0-13.2096-0.2048-25.8048 0.12288-38.37952 0.1024-3.91168-1.24928-5.77536-4.7104-6.79936-15.23712-4.5056-30.39232-9.40032-45.75232-13.49632-8.84736-2.3552-18.04288-3.42016-27.29984-5.09952v-12.61568c0-14.58176 0.02048-14.49984 13.96736-19.3536 24.20736-8.3968 48.16896-17.28512 68.7104-33.32096a147.39456 147.39456 0 0 0 49.17248-67.97312c8.8064-24.73984 9.58464-50.4832 7.72096-76.34944-1.4336-19.8656-5.95968-39.05536-15.31904-56.79104a84.66432 84.66432 0 0 0-31.27296-33.25952c-28.44672-17.26464-59.78112-21.9136-92.44672-20.09088-9.54368 0.53248-19.08736 1.16736-28.7744 1.76128l-0.512-8.68352-37.31456 4.64896V157.65504l37.376-5.55008V109.54752l-135.55712 18.86208v81.55136l-84.82816 3.80928V181.22752l35.90144-2.02752V133.28384l-146.16576 8.04864v78.35648h-97.44384v40.1408h37.888v31.0272h-37.80608v39.5264h48.76288v126.95552h37.25312v30.72h-37.13024v48.27136h37.29408v30.74048h-37.7856v126.70976h-48.39424v79.85152h37.62176v30.69952h60.17024v78.72512l98.5088 4.34176v-30.3104l37.80608 3.2768v-50.42176l58.63424 4.46464v81.14176l135.61856 18.86208v-85.0944l22.528 1.59744c24.8832 1.7408 49.5616 1.41312 73.9328-5.12 44.93312-12.02176 75.48928-38.7072 87.77728-84.50048 7.5776-28.24192 8.64256-56.99584 5.7344-85.97504z m-83.5584-392.704l37.00736-5.4272v37.02784l-37.00736 4.54656v-36.1472z m-0.16384 92.48768l36.98688-3.46112v37.08928l-36.98688 2.4576v-36.08576zM422.54336 256.4096l38.13376-1.8432v31.45728l-38.13376 1.72032v-31.3344z m23.16288 121.93792v30.16704h-37.76512v-30.16704h37.76512z m-71.68-120.50432h37.5808v30.55616h-37.5808V257.8432z m-20.74624 111.4112v-30.43328h37.94944v30.43328H353.28z m9.64608 395.53024h-37.888v-30.5152h37.888v30.5152z m39.09632-79.60576h-38.07232v-30.24896h38.07232v30.24896z m0.04096-39.60832h-38.03136v-30.208h38.03136v30.208z m1.20832-148.95104h37.6832v30.67904h-37.6832v-30.67904z m57.5488 346.4192h-38.1952v-30.208h38.1952v30.208z m33.03424-531.21024c3.23584-0.2048 105.7792-5.30432 118.12864-5.632 79.9744-2.02752 77.824 32.33792 78.39744 57.344 1.04448 45.89568-18.08384 87.18336-114.25792 94.6176-3.25632 0.24576-81.16224 3.50208-82.28864 3.50208l0.02048-149.83168z m65.57696 457.54368l-37.72416-1.7408v-30.26944h37.72416v32.01024z m97.30048 6.92224l-37.70368-2.92864v-32.03072l28.28288 1.96608 9.4208 0.65536v32.33792z m52.6336-99.79904c-2.31424 8.74496-8.86784 41.49248-86.05696 41.41056-18.90304-0.02048-126.73024-4.44416-129.49504-4.44416v-149.87264c2.39616 0 70.92224 1.45408 82.30912 2.06848 120.32 6.38976 123.20768 29.57312 135.43424 72.74496 3.50208 12.3904 1.14688 25.55904-2.19136 38.0928z m137.80992 43.008l-36.9664-4.3008v-36.20864l36.9664 3.54304v36.9664z" p-id="12932" fill="#25dcbe" style="--darkreader-inline-fill:#2ba899;" data-darkreader-inline-fill=""></path></svg>