<?xml version="1.0" standalone="no"?><!DOCTYPE svg PUBLIC "-//W3C//DTD SVG 1.1//EN" "http://www.w3.org/Graphics/SVG/1.1/DTD/svg11.dtd"><svg t="1622190283440" class="icon" viewBox="0 0 1024 1024" version="1.1" xmlns="http://www.w3.org/2000/svg" p-id="25756" xmlns:xlink="http://www.w3.org/1999/xlink" width="48" height="48"><defs><style type="text/css"></style></defs><path d="M921.6 678.4V331.377778c0-7.111111-4.266667-14.222222-11.377778-18.488889L621.511111 145.066667c2.844444-9.955556 5.688889-21.333333 5.688889-32.711111 0-58.311111-48.355556-106.666667-106.666667-106.666667s-106.666667 48.355556-106.666666 106.666667c0 9.955556 1.422222 19.911111 4.266666 29.866666L123.733333 312.888889c-7.111111 4.266667-11.377778 11.377778-11.377777 18.488889v345.6C62.577778 685.511111 24.177778 729.6 24.177778 782.222222c0 58.311111 48.355556 106.666667 106.666666 106.666667 34.133333 0 65.422222-17.066667 85.333334-42.666667l290.133333 167.822222c2.844444 1.422222 7.111111 2.844444 11.377778 2.844445s7.111111-1.422222 11.377778-2.844445l285.866666-164.977777c19.911111 24.177778 49.777778 39.822222 82.488889 39.822222 58.311111 0 106.666667-48.355556 106.666667-106.666667-1.422222-51.2-35.555556-92.444444-82.488889-103.822222z m-42.666667-334.222222v332.8c-21.333333 2.844444-41.244444 14.222222-56.888889 28.444444L739.555556 658.488889V446.577778c0-7.111111-4.266667-14.222222-11.377778-18.488889L540.444444 320v-102.4c22.755556-4.266667 44.088889-17.066667 59.733334-34.133333l278.755555 160.711111z m-354.133333 14.222222l173.511111 99.555556v200.533333l-173.511111 99.555555-173.511111-99.555555v-199.111111l173.511111-100.977778z m-86.755556-177.777778c15.644444 18.488889 36.977778 32.711111 61.155556 36.977778v106.666667l-180.622222 103.822222c-7.111111 4.266667-11.377778 11.377778-11.377778 18.488889v211.911111L213.333333 713.955556c-14.222222-18.488889-35.555556-31.288889-59.733333-36.977778V344.177778l284.444444-163.555556z m79.644445 789.333334L236.088889 807.822222c1.422222-8.533333 2.844444-17.066667 2.844444-25.6 0-9.955556-1.422222-19.911111-4.266666-29.866666l95.288889-55.466667 183.466666 106.666667c2.844444 1.422222 7.111111 2.844444 11.377778 2.844444s7.111111-1.422222 11.377778-2.844444L719.644444 696.888889l79.644445 44.088889c-5.688889 12.8-8.533333 27.022222-8.533333 41.244444 0 9.955556 1.422222 19.911111 4.266666 29.866667L517.688889 969.955556z" p-id="25757"></path><path d="M896 780.8m-64 0a64 64 0 1 0 128 0 64 64 0 1 0-128 0Z" fill="#3B5EED" p-id="25758"></path><path d="M520.533333 112.355556m-64 0a64 64 0 1 0 128 0 64 64 0 1 0-128 0Z" fill="#3B5EED" p-id="25759"></path><path d="M132.266667 780.8m-64 0a64 64 0 1 0 128 0 64 64 0 1 0-128 0Z" fill="#3B5EED" p-id="25760"></path></svg>