<?xml version="1.0" standalone="no"?><!DOCTYPE svg PUBLIC "-//W3C//DTD SVG 1.1//EN" "http://www.w3.org/Graphics/SVG/1.1/DTD/svg11.dtd"><svg t="1622190105411" class="icon" viewBox="0 0 1024 1024" version="1.1" xmlns="http://www.w3.org/2000/svg" p-id="20329" xmlns:xlink="http://www.w3.org/1999/xlink" width="48" height="48"><defs><style type="text/css"></style></defs><path d="M254.08512 206.98112c-318.89408 204.1856-129.87392 476.8768 159.55968 440.9856C769.6384 689.29536 920.44288 387.7888 641.73056 226.33472c-103.91552-48.68096-179.39456-42.73152-387.64544-19.3536z" p-id="20330"></path><path d="M166.52288 281.61024l42.752-175.27808c1.20832-4.9664 7.84384-5.92896 10.42432-1.52576l80.46592 137.6256-133.64224 39.17824z m410.14272-20.736l82.29888-149.83168c2.56-4.6592 9.54368-3.56352 10.55744 1.64864l49.99168 256.48128-142.848-108.29824zM410.94144 648.28416s-9.39008 216.2688-39.34208 237.0048 152.07424 59.904 195.85024 18.432C647.79264 835.24608 503.808 693.9648 486.8096 641.05472c-52.57216-164.94592-75.86816 7.22944-75.86816 7.22944z" p-id="20331"></path><path d="M506.7264 922.0096l-2.01728-32.33792c0.27648-0.02048 81.8688-2.048 116.39808-17.96096 45.6704-21.0432 80.47616-55.28576 103.44448-101.77536 19.53792-39.54688 23.47008-78.16192 26.95168-112.24064 3.59424-35.23584 6.69696-65.66912 25.37472-89.27232 20.31616-25.67168 55.8592-37.79584 111.86176-38.15424 55.77728-0.37888 79.45216 26.30656 88.60672 42.22976 13.70112 23.84896 12.94336 54.36416-1.9968 79.62624-17.14176 28.98944-49.68448 46.11072-87.36768 46.11072-0.78848 0-1.56672-0.01024-2.3552-0.02048l0.02048-0.96256c0.3072-16.2304 11.22304-30.11584 26.74688-34.85696 15.21664-4.63872 27.42272-13.83424 35.072-26.76736 9.0112-15.23712 9.69728-33.23904 1.80224-46.99136-9.63584-16.77312-30.73024-25.97888-59.4432-25.97888h-0.8704c-95.25248 0.60416-98.58048 33.25952-105.216 98.31424-3.57376 34.97984-8.00768 78.51008-30.13632 123.29984-33.09568 67.01056-83.68128 100.864-120.28928 117.47328-39.75168 18.04288-125.2352 20.18304-126.58688 20.26496z" p-id="20332"></path></svg>