<?xml version="1.0" standalone="no"?><!DOCTYPE svg PUBLIC "-//W3C//DTD SVG 1.1//EN" "http://www.w3.org/Graphics/SVG/1.1/DTD/svg11.dtd"><svg t="1622695360196" class="icon" viewBox="0 0 1024 1024" version="1.1" xmlns="http://www.w3.org/2000/svg" p-id="36441" data-darkreader-inline-fill="" xmlns:xlink="http://www.w3.org/1999/xlink" width="48" height="48"><defs><style type="text/css"></style></defs><path d="M1004.495238 375.466667c0-34.133333-9.752381-63.390476-24.380952-97.52381-4.87619-9.752381-34.133333-73.142857-43.885715-87.771428-39.009524-68.266667-78.019048-102.4-156.038095-131.657143-48.761905-14.628571-87.771429-24.380952-126.780952-24.380953-48.761905 0-97.52381 9.752381-151.161905 34.133334-63.390476 24.380952-131.657143 82.895238-180.419048 146.285714l-24.380952 24.380952c-53.638095 63.390476-63.390476 253.561905-14.628571 355.961905-4.87619 0-9.752381 4.87619-14.628572 9.752381-34.133333 14.628571-73.142857 43.885714-102.4 78.019048-29.257143 34.133333-34.133333 146.285714-4.87619 195.047619 9.752381 14.628571 19.504762 29.257143 39.009524 43.885714l4.87619 4.87619 14.628571 14.628572c43.885714 29.257143 97.52381 53.638095 126.780953 53.638095 24.380952 0 39.009524-4.87619 63.390476-19.504762h4.87619c4.87619 0 9.752381-4.87619 14.628572-4.87619 39.009524-14.628571 73.142857-48.761905 82.895238-87.771429 0-9.752381 4.87619-9.752381 14.628571-34.133333 9.752381-24.380952 14.628571-39.009524 14.628572-53.638095l43.885714 14.628571c24.380952 9.752381 48.761905 14.628571 68.266667 9.752381 43.885714 0 73.142857-14.628571 117.028571-34.133333l4.876191-4.876191c9.752381-4.87619 14.628571-9.752381 24.380952-14.628571 68.266667-34.133333 136.533333-97.52381 156.038095-165.790476 4.87619-14.628571 4.87619-19.504762 24.380953-63.390477 24.380952-68.266667 34.133333-112.152381 24.380952-160.914285zM209.67619 892.342857l-4.87619-4.87619c-9.752381-4.87619-9.752381-9.752381-14.628571-14.628572-24.380952-43.885714-19.504762-141.409524 0-165.790476 24.380952-34.133333 63.390476-58.514286 87.771428-73.142857 4.87619-4.87619 14.628571-4.87619 19.504762-9.752381 43.885714 63.390476 136.533333 121.904762 219.428571 156.038095 0 14.628571-4.87619 29.257143-14.628571 48.761905-9.752381 24.380952-9.752381 24.380952-14.628571 34.133333 0 29.257143-34.133333 63.390476-68.266667 78.019048 0 0-4.87619 4.87619-14.628571 4.87619h-4.876191c-24.380952 9.752381-34.133333 14.628571-58.514286 14.628572-29.257143 0-92.647619-29.257143-131.657143-63.390476 4.87619 0 0 0 0-4.876191z m565.638096-199.923809c-9.752381 4.87619-14.628571 4.87619-24.380953 14.628571l-4.87619 4.876191c-43.885714 19.504762-63.390476 29.257143-102.4 34.133333h-4.876191c-73.142857 0-248.685714-102.4-292.571428-180.419048-4.87619-4.87619-4.87619-9.752381-9.752381-19.504762-24.380952-97.52381-14.628571-229.180952 19.504762-268.190476 48.761905-58.514286 112.152381-112.152381 165.790476-131.657143 78.019048-29.257143 136.533333-39.009524 224.304762-19.504762 63.390476 24.380952 92.647619 48.761905 126.780952 107.276191 9.752381 14.628571 39.009524 78.019048 43.885715 87.771428 29.257143 63.390476 29.257143 107.27619-4.876191 190.171429-19.504762 43.885714-19.504762 48.761905-24.380952 68.266667-9.752381 29.257143-29.257143 58.514286-53.638096 82.895238l-58.514285 29.257143z" fill="#58A2FB" p-id="36442" style="--darkreader-inline-fill:#174f93;" data-darkreader-inline-fill=""></path><path d="M633.904762 438.857143m-195.047619 0a195.047619 195.047619 0 1 0 390.095238 0 195.047619 195.047619 0 1 0-390.095238 0Z" fill="#58A2FB" p-id="36443" style="--darkreader-inline-fill:#174f93;" data-darkreader-inline-fill=""></path><path d="M424.228571 809.447619c0-34.133333-29.257143-63.390476-63.390476-63.390476-34.133333 0-63.390476 29.257143-63.390476 63.390476s29.257143 63.390476 63.390476 63.390476c39.009524 0 63.390476-24.380952 63.390476-63.390476zM170.666667 258.438095c4.87619 0 4.87619-4.87619 9.752381-4.87619 19.504762-9.752381 43.885714-34.133333 53.638095-58.514286 0-4.87619 0-4.87619 4.87619-19.504762 14.628571-34.133333 14.628571-48.761905 0-78.019047l-14.628571-29.257143C214.552381 43.885714 199.92381 34.133333 170.666667 24.380952 136.533333 14.628571 107.27619 14.628571 78.019048 29.257143c-24.380952 9.752381-43.885714 29.257143-58.514286 48.761905-19.504762 24.380952-24.380952 92.647619-4.876191 126.780952 14.628571 34.133333 82.895238 73.142857 112.152381 68.266667 14.628571 0 24.380952-4.87619 43.885715-14.628572-4.87619 0-4.87619 0 0 0z m-9.752381-34.133333s-4.87619 0-9.752381 4.87619c-9.752381 4.87619-14.628571 9.752381-29.257143 9.752381-19.504762 0-68.266667-29.257143-82.895238-48.761904C29.257143 165.790476 29.257143 112.152381 39.009524 97.52381c14.628571-19.504762 34.133333-34.133333 48.761905-39.009524 24.380952-9.752381 43.885714-9.752381 73.142857 0 19.504762 4.87619 29.257143 14.628571 39.009524 29.257143l14.628571 24.380952c9.752381 14.628571 9.752381 29.257143 0 53.638095-9.752381 14.628571-9.752381 14.628571-14.628571 19.504762 0 14.628571-19.504762 34.133333-39.009524 39.009524z" fill="#58A2FB" p-id="36444" style="--darkreader-inline-fill:#174f93;" data-darkreader-inline-fill=""></path><path d="M78.019048 136.533333a63.390476 63.390476 0 1 0 126.780952 0 63.390476 63.390476 0 1 0-126.780952 0Z" fill="#58A2FB" p-id="36445" style="--darkreader-inline-fill:#5ea8e8;" data-darkreader-inline-fill=""></path></svg>