<?xml version="1.0" standalone="no"?><!DOCTYPE svg PUBLIC "-//W3C//DTD SVG 1.1//EN" "http://www.w3.org/Graphics/SVG/1.1/DTD/svg11.dtd"><svg t="1622190076007" class="icon" viewBox="0 0 1024 1024" version="1.1" xmlns="http://www.w3.org/2000/svg" p-id="19442" xmlns:xlink="http://www.w3.org/1999/xlink" width="48" height="48"><defs><style type="text/css"></style></defs><path d="M1015.858 533.336c-31.188-106.654-209.43-37.688-209.43-37.688l-39.062 273.664s310.24-24.622 248.492-235.976z m-215.556 158.728l-4.876-102.622s145.714-90.232 145.684 7.876c0.002 64.56-140.808 94.746-140.808 94.746z" fill="#570a13" p-id="19443"></path><path d="M953.734 944.932a21.22 21.22 0 0 0-15.092-6.248H21.34a21.218 21.218 0 0 0-15.092 6.248c-8.312 8.312-8.312 21.812 0 30.124a21.214 21.214 0 0 0 15.092 6.25h917.302c5.466 0 10.904-2.062 15.092-6.25 8.312-8.312 8.312-21.812 0-30.124zM831.988 789.312c0 63.998-42.686 106.684-85.342 106.684H234.678c-42.686 0-85.374-42.686-85.374-106.684v-447.94h682.684v447.94z" fill="#570a13" p-id="19444"></path><path d="M149.304 426.682h682.684v42.656H149.304z" fill="#570a13" p-id="19445"></path><path d="M673.62 263.968c0-0.062-4.624-6.156-6.876-13.906-2.594-9.124-1-15.718 5.406-22.124 17.31-17.406 23.03-40 16.124-63.624-4.654-15.876-13.592-27.062-14.78-28.5v-0.032l-0.032-0.032a21.316 21.316 0 0 0-16.438-7.718c-11.782 0-21.344 9.562-21.344 21.344 0 5.156 1.876 9.906 4.938 13.594 0.032 0.062 4.532 5.874 6.718 13.31 2.532 8.718 0.906 15.156-5.406 21.532-17.312 17.376-23.062 40.092-16.188 63.998 4.656 16.188 13.688 27.688 14.688 28.938a21.24 21.24 0 0 0 16.594 7.936c11.782 0 21.344-9.53 21.344-21.31a21.17 21.17 0 0 0-4.748-13.406zM523.326 93.38c-6.344-23.876-18.594-40.438-19.97-42.25h-0.062a21.164 21.164 0 0 0-16.936-8.438c-11.782 0-21.312 9.562-21.312 21.344 0 4.812 1.594 9.25 4.282 12.812h-0.032c0.124 0.124 9 12.218 13.094 28.654 4.906 19.656 0.968 36.376-12.032 51.062-22.75 25.78-30.03 57.404-20.968 91.434 6.344 23.906 18.592 40.468 19.968 42.282l0.062-0.032c3.876 5.124 10 8.436 16.938 8.436 11.78 0 21.312-9.53 21.312-21.31 0-4.876-1.624-9.344-4.376-12.906l0.062-0.032c-0.124-0.094-8.562-11.688-12.75-27.406-5.344-20.124-1.5-37.216 11.75-52.216 22.752-25.748 30.032-57.372 20.97-91.434zM346.924 164.316c-4.624-15.876-13.592-27.094-14.75-28.5v-0.032c-0.032 0-0.062-0.032-0.062-0.032a21.25 21.25 0 0 0-16.406-7.718c-11.78 0-21.342 9.562-21.342 21.344 0 5.124 1.812 9.844 4.876 13.532l-0.062-0.062c0.032 0.032 4.968 6.31 7.062 14.342 2.188 8.312 0.5 14.468-5.656 20.624-17.282 17.376-23.032 40.092-16.156 63.998 4.624 16.188 13.656 27.688 14.656 28.938h0.032a21.192 21.192 0 0 0 16.592 7.936c11.782 0 21.342-9.53 21.342-21.31 0-5.094-1.812-9.75-4.75-13.406-0.032-0.062-4.624-6.156-6.876-13.906-2.624-9.124-1-15.718 5.376-22.124 17.312-17.406 23.062-40 16.124-63.624z m-47.686-1.374c0 0.032 0.032 0.032 0.032 0.032l-0.032-0.032z" fill="#570a13" p-id="19446"></path><path d="M219.552 356.436c8.344 8.342 21.874 8.342 30.186 0a21.144 21.144 0 0 0 6.25-15.062h-42.686c0 5.436 2.126 10.906 6.25 15.062zM304.894 356.436c8.344 8.342 21.844 8.342 30.156 0a21.152 21.152 0 0 0 6.25-15.062h-42.624c0 5.436 2.062 10.906 6.218 15.062zM390.236 356.436c8.312 8.342 21.812 8.342 30.156 0a21.276 21.276 0 0 0 6.25-15.062h-42.656c0 5.436 2.062 10.906 6.25 15.062zM475.544 356.436a21.334 21.334 0 0 0 30.186 0 21.276 21.276 0 0 0 6.25-15.062h-42.686a21.28 21.28 0 0 0 6.25 15.062zM560.902 356.436c8.344 8.342 21.844 8.342 30.156 0a21.15 21.15 0 0 0 6.248-15.062h-42.652c0 5.436 2.094 10.906 6.248 15.062zM646.244 356.436c8.312 8.342 21.812 8.342 30.156 0a21.276 21.276 0 0 0 6.25-15.062h-42.656c0 5.436 2.062 10.906 6.25 15.062zM725.302 341.374c0 5.438 2.094 10.906 6.25 15.062 8.312 8.342 21.844 8.342 30.188 0a21.276 21.276 0 0 0 6.25-15.062h-42.688z" fill="#570a13" p-id="19447"></path></svg>