<?xml version="1.0" standalone="no"?><!DOCTYPE svg PUBLIC "-//W3C//DTD SVG 1.1//EN" "http://www.w3.org/Graphics/SVG/1.1/DTD/svg11.dtd"><svg t="1623405398747" class="icon" viewBox="0 0 1420 1024" version="1.1" xmlns="http://www.w3.org/2000/svg" p-id="2615" xmlns:xlink="http://www.w3.org/1999/xlink" width="66.5625" height="48"><defs><style type="text/css"></style></defs><path d="M285.197594 823.992529c-40.432099 0-77.141926-33.095971-77.141927-73.468303s33.080682-73.476642 77.141927-73.476642c43.980628 0 77.141926 33.101531 77.141926 73.476642s-36.794614 73.468303-77.141926 73.468303z m946.749658-400.195635c-7.981062-58.830796-44.339233-106.469758-92.222826-143.30329l-18.616918-14.733413-15.07395 18.372288c-29.261114 33.094581-40.793485 91.839201-37.242176 135.758671 3.548529 33.189098 14.185775 66.197502 32.809643 91.935107-15.073949 7.366706-33.699207 14.733413-47.886372 22.002823-33.690868 11.004192-66.50329 14.733413-99.314323 14.733413H5.70058L2.157611 570.572266a412.805212 412.805212 0 0 0 33.251645 209.409057l14.713954 25.736214v3.545749c88.674297 146.942165 246.512238 212.954805 418.537344 212.954805 330.744272 0 602.078141-143.125377 730.656358-451.652774 84.240374 3.726442 169.363362-18.372288 209.267282-99.118341l10.637246-18.372288-17.730134-11.005582c-47.886372-29.281963-113.501488-33.094581-168.482137-18.363948zM758.438988 364.966098H614.882728v143.303291h143.642437V364.878532z m0-179.95474H614.882728v143.132328h143.642437V185.097535z m0-183.679791H614.882728v143.136497h143.642437V1.419133z m175.568075 363.633141H791.337587v143.303291H934.461575V364.878532z m-532.031882 0H259.305705v143.303291h143.118428V364.878532z m179.119383 0H439.224307v143.303291h142.758432V364.878532z m-356.462417 0H82.850846v143.303291H226.493283V364.878532zM581.095954 185.011358H439.224307v143.132328h142.758432V185.097535z m-180.007558 0H259.219529v143.132328H401.973791V185.097535z m0 0" fill="#05A7FC" p-id="2616"></path></svg>