<?xml version="1.0" standalone="no"?><!DOCTYPE svg PUBLIC "-//W3C//DTD SVG 1.1//EN" "http://www.w3.org/Graphics/SVG/1.1/DTD/svg11.dtd"><svg t="1623386601290" class="icon" viewBox="0 0 1024 1024" version="1.1" xmlns="http://www.w3.org/2000/svg" p-id="5604" xmlns:xlink="http://www.w3.org/1999/xlink" width="48" height="48"><defs><style type="text/css"></style></defs><path d="M308.32 503.04v177.76c0 16.32 8.8 31.52 23.04 39.52l158.24 89.6c13.92 7.84 30.88 7.84 44.8 0l158.24-89.6c14.24-8 23.04-23.2 23.04-39.52V503.04c0-16.32-8.8-31.52-23.04-39.52l-158.24-89.6a45.6 45.6 0 0 0-44.8 0l-158.24 89.6c-14.24 8.16-23.04 23.2-23.04 39.52z" fill="#40A9FF" p-id="5605"></path><path d="M752 390.72V171.68c0-16.32-8.8-31.52-23.04-39.52L534.4 21.92C527.52 17.92 519.68 16 512 16c-7.68 0-15.52 1.92-22.4 5.92L295.04 132.16c-14.24 8-23.04 23.2-23.04 39.52v219.04c0 16.32 8.8 31.52 23.04 39.52l194.56 110.24c6.88 4 14.72 5.92 22.4 5.92 7.68 0 15.52-1.92 22.4-5.92l194.56-110.24c14.24-8 23.04-23.2 23.04-39.52z m-48-1.44l-192 108.8-192-108.8v-216l192-108.8 192 108.8v216zM456.96 593.76L262.4 483.52c-6.88-4-14.72-5.92-22.4-5.92-7.68 0-15.52 1.92-22.4 5.92L23.04 593.76C8.8 601.76 0 616.96 0 633.28v219.04c0 16.32 8.8 31.52 23.04 39.52l194.56 110.24c6.88 4 14.72 5.92 22.4 5.92 7.68 0 15.52-1.92 22.4-5.92l194.56-110.24c14.24-8 23.04-23.2 23.04-39.52V633.28c0-16.32-8.8-31.52-23.04-39.52zM432 850.88l-192 108.8-192-108.8v-216l192-108.8 192 108.8v216zM1000.96 593.76L806.4 483.52c-6.88-4-14.72-5.92-22.4-5.92-7.68 0-15.52 1.92-22.4 5.92l-194.56 110.24c-14.24 8-23.04 23.2-23.04 39.52v219.04c0 16.32 8.8 31.52 23.04 39.52l194.56 110.24c6.88 4 14.72 5.92 22.4 5.92 7.68 0 15.52-1.92 22.4-5.92l194.56-110.24c14.24-8 23.04-23.2 23.04-39.52V633.28c0-16.32-8.8-31.52-23.04-39.52zM976 850.88l-192 108.8-192-108.8v-216l192-108.8 192 108.8v216z" fill="#334966" p-id="5606"></path></svg>