<?xml version="1.0" standalone="no"?><!DOCTYPE svg PUBLIC "-//W3C//DTD SVG 1.1//EN" "http://www.w3.org/Graphics/SVG/1.1/DTD/svg11.dtd"><svg t="1623386589681" class="icon" viewBox="0 0 1024 1024" version="1.1" xmlns="http://www.w3.org/2000/svg" p-id="5455" xmlns:xlink="http://www.w3.org/1999/xlink" width="48" height="48"><defs><style type="text/css"></style></defs><path d="M744.277 501.717l179.798 103.808v207.616L744.277 916.95 564.48 813.141V605.525l179.797-103.808z m-461.866 0l179.797 103.808v207.616L282.389 916.95 102.592 813.141V605.525l179.797-103.808z m461.866 73.899L628.46 642.475V776.17l115.818 66.858 115.798-66.858V642.475l-115.798-66.859z m-461.888 0l-115.797 66.859V776.17l115.797 66.858 115.798-66.858V642.475l-115.798-66.859z m230.955-473.899l179.797 103.808v207.616L513.344 516.95 333.547 413.141V205.525l179.797-103.808z m-0.021 73.899l-115.798 66.859V376.17l115.798 66.858 115.797-66.858V242.475l-115.797-66.859z" fill="#1677FF" p-id="5456"></path></svg>