<?xml version="1.0" standalone="no"?><!DOCTYPE svg PUBLIC "-//W3C//DTD SVG 1.1//EN" "http://www.w3.org/Graphics/SVG/1.1/DTD/svg11.dtd"><svg t="1646142341472" class="icon" viewBox="0 0 1536 1024" version="1.1" xmlns="http://www.w3.org/2000/svg" p-id="7508" data-darkreader-inline-fill="" xmlns:xlink="http://www.w3.org/1999/xlink" width="72" height="48"><defs><style type="text/css"></style></defs><path d="M919.104 804.0064c-2.24-0.0384-3.2512-2.432-2.2912-4.0704 6.5664-3.2256 10.112-6.6432 10.112-10.1888 0-3.0208-2.5728-5.9392-7.3984-8.7424-1.1904-1.6512-0.1664-4.224 2.1376-4.2624 39.9616-0.7936 64.8704-1.92 64.8704-3.1616 0-1.4464-33.4208-2.7264-84.9664-3.52-9.792-0.1536-19.5584-1.0752-29.1968-2.8416-45.4016-8.2688-115.392-13.568-193.9328-13.568-21.888 0-43.1104 0.4096-63.3216 1.1904l-2.8032 0.4608c-1.92 0.0768-3.8272 0.1664-5.7216 0.256-24.7168-1.0624-51.9296-1.6384-80.512-1.6384-113.1136 0-204.8 9.1648-204.8 20.48 0 8.0384 46.3232 14.9888 113.7152 18.3424 6.272 11.0464 46.976 20.672 106.496 26.5984l0.9984 0.3456c34.752 3.3152 75.584 5.3888 119.5392 5.8112 6.1056 0.064 12.2624 0.1024 18.4832 0.1024 75.9168 0 143.808-4.992 189.0048-12.8512 6.3104-0.7296 12.672-1.1264 19.0336-1.1904 71.104-0.704 120.32-2.2144 120.32-3.9552 0.0128-1.4848-35.4944-2.8032-89.7664-3.5968z" opacity=".2" p-id="7509"></path><path d="M1042.2144 683.7632l-7.3984-15.3216c0.0384-0.576 0.064-1.1648 0.064-1.7536 0-17.3696-18.0608-33.3696-48.448-46.1952v10.6624c-2.9568-1.1776-6.0544-2.3168-9.2672-3.4304v-4.9664c-43.4304-15.6672-108.0704-25.6-180.288-25.6-63.0912 0-120.4224 7.5904-162.8544 19.9424v17.3056-20.9408c-43.4816 13.8112-70.4384 33.0112-70.4384 54.2336 0 3.3408 0.6784 6.6432 1.9712 9.8688l-4.4288 7.8848s-3.5456 4.608 2.7008 14.3104c5.5168 8.5632 33.1136 42.0864 47.68 59.6352 6.2592 8.9984 10.496 14.5408 10.8672 14.0032 0.5888-0.8448-3.8912-17.7408-16.32-37.0176-5.7984-10.3552-12.7232-24.064-16.8832-34.2016 11.6096 7.3472 79.7952 41.6768 218.88 41.5488 142.144-0.1408 205.3248-44.6336 212.2624-50.688-2.4192 9.7408-10.7008 29.4272-17.3056 43.2768-10.8544 19.8144-14.784 37.056-14.272 37.9136 0.32 0.5376 4.0192-5.1712 9.4848-14.4256 12.6976-18.0992 36.7744-52.6592 41.5872-61.4528 5.4784-9.984 2.4064-14.592 2.4064-14.592z" fill="#A52B00" p-id="7510" style="--darkreader-inline-fill: #603726;" data-darkreader-inline-fill=""></path><path d="M1045.4784 697.2928c5.0048 2.9056-7.9616 38.8096-18.6368 62.5792-14.5024 26.9952-16.64 48.0512-15.4112 48.7808 0.7808 0.4608 6.0544-7.5648 13.5808-20.352 18.5856-25.8944 53.696-75.2384 60.1344-87.232 7.2832-13.5936 0-17.3952 0-17.3952L1038.208 649.088c-1.0752-0.7936-1.856-1.92-2.2272-3.2 0-0.0128-0.0128-0.0256-0.0128-0.0512-0.1152-0.4096-0.192-0.8192-0.2176-1.2416l-28.6976 43.968-0.0768 0.1792c23.9872-4.3008 38.5024 8.5504 38.5024 8.5504zM562.4576 706.4832c-5.0048 2.9056 7.9616 38.8096 18.6368 62.5792 14.5024 26.9952 16.64 48.0512 15.4112 48.7808-0.7808 0.4608-6.0544-7.5648-13.5808-20.352-18.5856-25.8944-53.696-75.2384-60.1344-87.232-7.2832-13.5936 0-17.3952 0-17.3952l46.9504-34.5856c1.0752-0.7936 1.856-1.92 2.2272-3.2 0-0.0128 0.0128-0.0256 0.0128-0.0512 0.1152-0.4096 0.192-0.8192 0.2176-1.2416l28.6976 43.968 0.0768 0.1792c-23.9872-4.3008-38.5152 8.5504-38.5152 8.5504z" fill="#F74C00" p-id="7511" style="--darkreader-inline-fill: #884f32;" data-darkreader-inline-fill=""></path><path d="M1036.8 640.7296l14.336-20.7616c1.6256-2.3552 1.9584-5.4144 0.896-8.0896-0.0384-0.1024-0.0896-0.192-0.1408-0.2944-0.0256-0.064-0.0384-0.1408-0.064-0.2048-1.0496-2.6368-3.328-4.5184-6.0288-4.9792l-21.9136-3.7248a8.02944 8.02944 0 0 1-5.9136-4.48c-0.0128-0.0384-0.0384-0.0768-0.0512-0.1024-0.9856-2.0992-1.024-4.5184-0.1024-6.6432l9.344-21.4016a8.5184 8.5184 0 0 0-1.2416-8.8704c-1.5744-2.0096-3.9552-3.1744-6.4768-3.072l-20.9664 0.768a8.5376 8.5376 0 0 1-5.4528-1.7024l-0.1024-0.0768a8.57088 8.57088 0 0 1-3.2256-8.768l4.928-21.7984c0.6016-2.6752-0.1152-5.4528-1.8816-7.4624-0.256-0.384-0.5376-0.7552-0.8704-1.1008-1.9584-2.048-4.8-2.8928-7.5136-2.2272l-11.1232 2.7392-12.2752 2.7264c-1.3312 0.2944-2.7264 0.1152-3.9424-0.4992l-0.064-0.0384a5.88544 5.88544 0 0 1-3.2256-5.4528l0.832-24.768c0.1024-2.8544-1.2288-5.568-3.5072-7.1424a7.63648 7.63648 0 0 0-7.6672-0.6528l-21.4272 10.1888c-1.9456 0.9216-4.224 0.8448-6.1056-0.2048l-0.1792-0.1024a6.69056 6.69056 0 0 1-3.328-4.7872l-3.8272-24.5376c-0.4352-2.816-2.2528-5.1968-4.7872-6.2976-2.5216-1.1008-5.4272-0.7424-7.6416 0.9344l-19.1232 14.3488a6.65216 6.65216 0 0 1-6.016 1.024l-0.128-0.0384a6.69184 6.69184 0 0 1-4.2752-4.1088l-8.3072-23.1808c-0.96-2.688-3.1744-4.6592-5.8752-5.2096-2.688-0.5504-5.4528 0.384-7.3216 2.4704l-16.1664 18.0864a6.58816 6.58816 0 0 1-5.5936 2.1632l-0.1152-0.0128a6.49856 6.49856 0 0 1-4.928-3.1488l-12.5312-21.12c-1.4464-2.432-3.9808-3.904-6.7328-3.904-2.7392 0-5.2864 1.472-6.72 3.904l-12.5184 21.0816a6.60352 6.60352 0 0 1-5.0048 3.2l-0.0768 0.0128c-2.0992 0.2176-4.1856-0.5888-5.5936-2.1632l-16.1664-18.0864c-1.8688-2.0864-4.6464-3.008-7.3216-2.4704-2.688 0.5632-4.9152 2.5216-5.8624 5.2096l-8.32 23.2192a6.58688 6.58688 0 0 1-4.224 4.0704l-0.192 0.064c-2.0352 0.64-4.2368 0.2688-5.9392-1.0112l-19.1488-14.3744c-2.2272-1.6768-5.12-2.0352-7.6544-0.9344-2.5216 1.088-4.3392 3.4816-4.7744 6.2976l-3.8144 24.4224a6.8928 6.8928 0 0 1-3.4432 4.9408l-0.064 0.0384c-1.8944 1.0624-4.1856 1.1392-6.1568 0.2048l-21.3888-10.176a7.57376 7.57376 0 0 0-7.6672 0.6528c-2.2784 1.5872-3.6096 4.288-3.5072 7.1424l0.832 24.832c0.064 2.0864-0.8192 4.096-2.4064 5.4656l-0.0896 0.0768a6.71744 6.71744 0 0 1-5.9648 1.4208l-22.9376-5.6448c-2.6752-0.6528-5.4784 0.1792-7.4112 2.2016-1.9456 2.0224-2.7392 4.9408-2.112 7.7312l5.4656 24.2176a6.8736 6.8736 0 0 1-1.3056 5.7728l-0.1408 0.1664a6.7392 6.7392 0 0 1-5.5168 2.5472l-23.5776-0.8576c-2.7264-0.0768-5.3248 1.28-6.848 3.6608-1.5232 2.368-1.7536 5.4016-0.6272 8.0128l9.8944 22.6176c0.8192 1.8688 0.7552 4.0192-0.192 5.8368l-0.192 0.384a6.78912 6.78912 0 0 1-4.8896 3.584l-23.2448 3.9424c-2.7008 0.4608-4.9792 2.3424-6.0416 4.9792-1.0496 2.6496-0.704 5.6576 0.896 7.9744l15.5136 22.464c-0.0384 0.5504-0.0768 1.0112-0.1152 1.5616l-5.7216 6.08s-7.7312 9.7664-3.5584 17.0752c-0.3968 0.7808-0.7808 1.5616-1.152 2.3296 2.0736 6.5152 7.3088 13.1328 18.432 18.0992-0.0896-0.0768-0.1792-0.1408 0.0128 0.0128 0 0 64.1792 29.6064 155.8912 41.8048 80.5632 10.7136 182.3872 8 280.6272-40.0256 26.6752-13.6704 30.0032-29.7344 29.7472-37.7856 1.5872-0.4992 2.7392-0.9984 3.3792-1.5104l-2.6112-1.9328c-0.5248-1.024-1.2032-2.3168-1.728-3.3408 0-1.2416 0.3712-2.4576 1.0752-3.4816z" fill="#F74C00" p-id="7512" style="--darkreader-inline-fill: #884f32;" data-darkreader-inline-fill=""></path><path d="M1028.3904 642.9696s30.0544-1.3952 69.5296-41.5232l5.5936-12.416s8.7936-27.1104 28.0832-36.7488c0 0 28.7232-9.9712 37.1456-56.4864 0 0 41.8944 55.232-45.504 107.0336 0 0-40.9984 65.728-98.7904 59.4304l3.9424-19.2896z" fill="#F74C00" p-id="7513" style="--darkreader-inline-fill: #b1704e;" data-darkreader-inline-fill=""></path><path d="M1131.9296 552.384s28.6336-10.7904 36.8128-56.5888c0 0-5.312 55.4624-36.8128 56.5888z" fill="#A52B00" p-id="7514" style="--darkreader-inline-fill: #bc876e;" data-darkreader-inline-fill=""></path><path d="M1132.032 552.1152C1130.24 515.84 1143.04 490.24 1143.04 490.24c-74.24 33.28-43.8656 94.7968-39.744 98.5856l0.3328-0.0256 28.16-35.84 0.2432-0.8448zM562.4192 650.7008c-0.3712 0-0.7424 0.0256-1.1136 0.0512-14.8224-3.3792-56.4992-14.2336-67.52-31.8592 0 0 0.2048-0.2304 0.5632-0.6656H494.08l-21.76-10.24v-22.9888c-1.6896 1.792-26.0864 28.3776-3.712 36.1472 0 0 8.6016 32.32 91.1872 58.112l0.064-0.2432c0.832 0.1536 1.6768 0.2432 2.56 0.2432 7.808 0 14.1312-6.4 14.1312-14.2848 0-7.872-6.336-14.272-14.1312-14.272z" fill="#F74C00" p-id="7515" style="--darkreader-inline-fill: #884f32;" data-darkreader-inline-fill=""></path><path d="M472.32 584.96l-0.0384-0.0512c-2.6752-0.2816-45.5168-5.4656-51.1616-43.4688 0 0-43.4304 77.9264 47.232 79.7184l5.248-0.3584 11.52-14.08-12.8-21.76z" fill="#F74C00" p-id="7516" style="--darkreader-inline-fill: #b1704e;" data-darkreader-inline-fill=""></path><path d="M494.08 618.24h0.256c5.6192-6.8608 50.304-65.5616-32.128-103.8976l10.2016 70.5792s-0.0384 0.0384-0.0896 0.1024l7.68 28.1088 14.08 5.1072z" fill="#F74C00" p-id="7517" style="--darkreader-inline-fill: #b1704e;" data-darkreader-inline-fill=""></path><path d="M461.8368 513.8176l10.1248 72s10.1248-35.9936-10.1248-72z" fill="#A52B00" p-id="7518" style="--darkreader-inline-fill: #bc876e;" data-darkreader-inline-fill=""></path><path d="M924.16 512c30.4768 12.6208 42.0992 33.1904 37.1456 9.1008l-0.3584 0.0768c-1.3312 0.2944-2.7264 0.1152-3.9424-0.4992l-0.064-0.0384a5.88544 5.88544 0 0 1-3.2256-5.4528l0.832-24.768c0.1024-2.8544-1.2288-5.568-3.5072-7.1424a7.63648 7.63648 0 0 0-7.6672-0.6528l-21.4272 10.1888c-1.9456 0.9216-4.224 0.8448-6.1056-0.2048l-0.1792-0.1024a6.69056 6.69056 0 0 1-3.328-4.7872l-3.8272-24.5376c-0.1792-1.1776-0.6144-2.2656-1.2288-3.2384l-12.9408-0.8192-17.3696 13.0304a6.65216 6.65216 0 0 1-6.016 1.024l-0.128-0.0384a6.69184 6.69184 0 0 1-4.2752-4.1088l-4.2752-11.9296-28.16-1.7792-5.2224 5.8496a6.58816 6.58816 0 0 1-5.5936 2.1632l-0.1152-0.0128a6.49856 6.49856 0 0 1-4.928-3.1488l-3.6096-6.08-30.1824-1.9072-4.7104 7.936a6.60352 6.60352 0 0 1-5.0048 3.2l-0.0768 0.0128c-2.0992 0.2176-4.1856-0.5888-5.5936-2.1632l-2.7392-3.0592L696.32 495.36l-29.44 42.24s21.6576 22.912 38.4 8.96c30.72-25.6 57.6-37.12 110.08-43.52s92.736 2.304 108.8 8.96z" fill="#A52B00" p-id="7519" style="--darkreader-inline-fill: #603726;" data-darkreader-inline-fill=""></path><path d="M578.88 601.6s-25.1264-72.2944-15.7056-112.448c9.4208-40.1664 87.936-125.8368 185.3056-141.9008 97.3568-16.064 141.3376 26.7776 144.4736 48.192 3.136 21.4144 9.4208 42.8416 9.4208 42.8416S765.7472 450.3296 578.88 601.6z" fill="#647EBF" p-id="7520" style="--darkreader-inline-fill: #495061;" data-darkreader-inline-fill=""></path><path d="M652.6848 469.0688c-8.9472-39.4112-29.9264-45.6064-49.4976-41.2672-21.9392 22.8224-36.3136 45.5936-40.0128 61.3504-9.4208 40.1664 15.7056 112.448 15.7056 112.448 27.84-16.64 53.44-29.44 88.4352-64.3456-3.6992-18.4192-8.4992-41.152-14.6304-68.1856z" fill="#444682" p-id="7521" style="--darkreader-inline-fill: #92969b;" data-darkreader-inline-fill=""></path><path d="M981.76 448c-56.32-21.76-199.68 1.28-295.68 75.52 20.0832-4.6464 92.16-32 133.12-38.4s119.808 4.6208 134.4 30.72c0 0 24.6144-7.4752 39.5008-15.0784 2.7648-1.4208 5.5424-2.8928 8.0768-4.608 0.2304-12.0192-2.0992-41.4592-19.4176-48.1536z" fill="#444682" p-id="7522" style="--darkreader-inline-fill: #434252;" data-darkreader-inline-fill=""></path><path d="M1006.7328 462.0416c-35.6992-62.72-156.544-34.752-210.1632-11.3408-41.3696 18.0608-77.7984 43.776-110.4768 72.4096l3.904 2.496 18.304 11.712c9.7408 6.2336 23.3088 5.1712 31.616-2.496 23.5648-21.7728 45.8112-38.4256 66.5728-51.0208 89.9072-54.528 152.1792-33.1392 174.72-23.3088 17.024 7.424 20.1984 23.6288 19.968 35.6352 1.6768-1.1264 3.264-2.3424 4.608-3.776 7.7312-8.2688 6.4-20.736 0.9472-30.3104z" fill="#8F90B4" p-id="7523" style="--darkreader-inline-fill: #4b4a52;" data-darkreader-inline-fill=""></path><path d="M561.0624 604.8896S586.24 611.84 601.6 613.12s23.04-1.28 23.04-1.28l-26.7264-37.12-35.9936 8.96-0.8576 21.2096z" fill="#A52B00" p-id="7524" style="--darkreader-inline-fill: #bc876e;" data-darkreader-inline-fill=""></path><path d="M568.32 566.72l-23.0528 3.9808s-5.1072 4.0064-5.1072 15.5264 5.1072 16.4224 5.1072 16.4352L568.32 605.312l61.0688 6.9888 0.9984-56.2944-62.0672 10.7136z" fill="#FCEE21" p-id="7525" style="--darkreader-inline-fill: #d7cc77;" data-darkreader-inline-fill=""></path><path d="M674.8672 583.8208l-45.4656 28.7104-17.6256-15.3088 12.4928-12.8-15.0144-10.048 21.1456-18.1376z" fill="#FFFFFF" p-id="7526" style="--darkreader-inline-fill: #d2cbbf;" data-darkreader-inline-fill=""></path><path d="M661.568 575.5776c-4.0448 2.0224-6.6688 5.248-6.6688 8.896 0 3.3408 2.2016 6.3232 5.6704 8.3712l14.2848-9.024-13.2864-8.2432z" p-id="7527"></path><path d="M610.304 575.0784l-1.024-0.3584-68.4416 4.8c-0.4096 1.8816-0.6784 4.096-0.6784 6.72 0 3.1232 0.384 5.7344 0.9216 7.9232L611.84 597.76l0.7808 0.192-0.8448-0.7296 12.4928-12.8-13.9648-9.344z" fill="#FFCC33" p-id="7528" style="--darkreader-inline-fill: #d0b874;" data-darkreader-inline-fill=""></path><path d="M545.2672 602.6752L568.32 605.312l60.7744 6.9504-16.4608-14.3104-0.7936-0.192-70.7584-3.5968c1.472 5.8752 4.1856 8.4992 4.1856 8.512z" fill="#F9B419" p-id="7529" style="--darkreader-inline-fill: #c7a968;" data-darkreader-inline-fill=""></path><path d="M733.2992 618.816a46.4384 35.2 90 1 0 70.4 0 46.4384 35.2 90 1 0-70.4 0Z" fill="#FFFFFF" p-id="7530" style="--darkreader-inline-fill: #d2cbbf;" data-darkreader-inline-fill=""></path><path d="M770.4448 601.5104a19.5584 14.1824 90 1 0 28.3648 0 19.5584 14.1824 90 1 0-28.3648 0Z" p-id="7531"></path><path d="M768.8064 589.8112a9.7536 7.0656 90 1 0 14.1312 0 9.7536 7.0656 90 1 0-14.1312 0Z" fill="#FFFFFF" p-id="7532" style="--darkreader-inline-fill: #d2cbbf;" data-darkreader-inline-fill=""></path><path d="M733.0176 580.1984s6.2336-11.6608 23.3344-13.9776c0 0 2.7136-18.8928-7.2832-12.5056-9.984 6.3872-16.0512 26.4832-16.0512 26.4832z" p-id="7533"></path><path d="M829.0048 618.816a46.4384 35.2 90 1 0 70.4 0 46.4384 35.2 90 1 0-70.4 0Z" fill="#FFFFFF" p-id="7534" style="--darkreader-inline-fill: #d2cbbf;" data-darkreader-inline-fill=""></path><path d="M866.1504 601.5104a19.5584 14.1824 90 1 0 28.3648 0 19.5584 14.1824 90 1 0-28.3648 0Z" p-id="7535"></path><path d="M864.512 589.8112a9.7536 7.0656 90 1 0 14.1312 0 9.7536 7.0656 90 1 0-14.1312 0Z" fill="#FFFFFF" p-id="7536" style="--darkreader-inline-fill: #d2cbbf;" data-darkreader-inline-fill=""></path><path d="M828.736 580.1984s6.2336-11.6608 23.3344-13.9776c0 0 2.7136-18.8928-7.2832-12.5056-9.9968 6.3872-16.0512 26.4832-16.0512 26.4832z" p-id="7537"></path><path d="M709.7344 677.4144c2.2272-1.8688 5.12-3.7248 8.8448-5.3504 0 0-8.64 0.0128-16.1536 6.208a26.368 26.368 0 0 0-4.4928 4.7616c-1.0112 1.3824-0.6656 3.328 0.7552 4.2752 1.5616 1.0368 3.6736 0.4096 4.416-1.3184 0.4352-0.9984 1.0496-2.1632 1.8944-3.4048 5.8368 8.4608 22.0672 25.6512 53.4272 16.6912 0-0.0128-34.2016 4.864-48.6912-21.8624z" p-id="7538"></path><path d="M442.7776 476.1088L410.88 482.9568l60.2752 234.5344c1.1264 3.968 8.4864 13.2736 20.1856 11.4048s12.7616-14.5408 11.8656-18.6624c-0.0256-0.064-60.4288-234.1248-60.4288-234.1248z" fill="#8C6239" p-id="7539" style="--darkreader-inline-fill: #645443;" data-darkreader-inline-fill=""></path><path d="M449.28 474.88c14.08 5.12 25.6 24.32 25.6 24.32l7.68-2.56s-16.64-33.28-38.4-38.4c-15.3344-3.6096-2.8416 13.7472 5.12 16.64z" fill="#999999" p-id="7540" style="--darkreader-inline-fill: #9b9488;" data-darkreader-inline-fill=""></path><path d="M377.152 475.5968s24.0896 0.2688 30.2976 27.9808l46.2592-12.0064 2.88-26.4576s17.152 6.6048 31.8848 29.7216l8.448-2.9312s-22.8992-44.2752-64.2176-49.4848c-41.3184-5.2224-41.3568 13.888-56.1408 9.8944l0.5888 23.2832z" fill="#CCCCCC" p-id="7541" style="--darkreader-inline-fill: #b6afa4;" data-darkreader-inline-fill=""></path><path d="M377.152 475.5968s24.0896 0.2688 30.2976 27.9808l11.9936-3.1104c-8.6912-30.0928-32.2048-35.136-42.5728-35.8656l0.2816 10.9952z" fill="#999999" p-id="7542" style="--darkreader-inline-fill: #9b9488;" data-darkreader-inline-fill=""></path><path d="M446.2464 489.4464c-7.936-1.6768-20.928-2.752-32.704 3.904l-6.0928 10.2272s3.5328 0.448 8.8064 0.4224c8.5248-0.0512 21.6064-1.3568 31.7312-7.8464 2.048-1.3056 3.9808-2.816 5.7216-4.5824 0 0-2.8928-1.1648-7.4624-2.1248z" fill="#999999" p-id="7543" style="--darkreader-inline-fill: #9b9488;" data-darkreader-inline-fill=""></path><path d="M415.5648 501.184l0.6912 2.816c8.5248-0.0512 21.6064-1.3568 31.7312-7.8464l-0.2944-1.1776a4.7936 4.7936 0 0 0-3.904-3.5968c-6.592-1.024-15.424-1.28-24.128 1.9712-3.1488 1.1776-4.9024 4.5696-4.096 7.8336z" fill="#8C6239" p-id="7544" style="--darkreader-inline-fill: #aa967e;" data-darkreader-inline-fill=""></path><path d="M384.3456 462.6048c2.2528 12.7744-2.6368 24.32-10.944 25.7792-4.9152 0.8704-14.3872 2.1632-14.3872 2.1632s-3.8016-17.4208-4.7232-22.6304c-1.0496-5.952-3.1744-22.6048-3.1744-22.6048s9.6768-2.3936 14.1056-3.1744c8.2944-1.472 16.8576 7.6928 19.1232 20.4672z" fill="#CCCCCC" p-id="7545" style="--darkreader-inline-fill: #b6afa4;" data-darkreader-inline-fill=""></path><path d="M339.186672 470.565306a23.488 15.2576 79.973 1 0 30.049105-5.31307 23.488 15.2576 79.973 1 0-30.049105 5.31307Z" fill="#999999" p-id="7546" style="--darkreader-inline-fill: #9b9488;" data-darkreader-inline-fill=""></path></svg>