<?xml version="1.0" standalone="no"?><!DOCTYPE svg PUBLIC "-//W3C//DTD SVG 1.1//EN" "http://www.w3.org/Graphics/SVG/1.1/DTD/svg11.dtd"><svg t="1624429826613" class="icon" viewBox="0 0 1024 1024" version="1.1" xmlns="http://www.w3.org/2000/svg" p-id="2479" xmlns:xlink="http://www.w3.org/1999/xlink" width="48" height="48"><defs><style type="text/css"></style></defs><path d="M710.656 235.52h-188.416c2.048-63.488 16.384-96.256 86.016-102.4 16.384-2.048 26.624-16.384 26.624-30.72-2.048-14.336-14.336-24.576-28.672-24.576-124.928 12.288-135.168 102.4-135.168 157.696h-135.168c-133.12 0-241.664 108.544-241.664 241.664v268.288c0 116.736 43.008 180.224 120.832 188.416C307.2 942.08 368.64 882.688 434.176 819.2c67.584-67.584 120.832-57.344 176.128 0 63.488 65.536 118.784 116.736 221.184 114.688 77.824 0 120.832-71.68 120.832-188.416V477.184c0-133.12-108.544-241.664-241.664-241.664z m188.416 509.952c0 112.64-40.96 133.12-67.584 135.168-79.872 6.144-122.88-40.96-182.272-100.352-32.768-32.768-77.824-65.536-126.976-65.536-47.104 0-92.16 32.768-126.976 65.536-59.392 59.392-114.688 102.4-182.272 100.352-26.624-2.048-67.584-20.48-67.584-135.168V477.184c0-104.448 83.968-188.416 188.416-188.416h376.832c104.448 0 188.416 83.968 188.416 188.416v268.288z" p-id="2480" fill="#1296db"></path><path d="M415.744 557.056h-53.248v55.296H307.2v-55.296h-53.248v-53.248H307.2V450.56h55.296v53.248h53.248zM628.736 489.472c0-22.528 18.432-40.96 40.96-40.96s40.96 18.432 40.96 40.96-18.432 40.96-40.96 40.96-40.96-18.432-40.96-40.96zM710.656 612.352c0-22.528 18.432-40.96 40.96-40.96s40.96 18.432 40.96 40.96-18.432 40.96-40.96 40.96c-22.528-2.048-40.96-18.432-40.96-40.96z" p-id="2481" fill="#1296db"></path></svg>