<?xml version="1.0" standalone="no"?><!DOCTYPE svg PUBLIC "-//W3C//DTD SVG 1.1//EN" "http://www.w3.org/Graphics/SVG/1.1/DTD/svg11.dtd"><svg t="1622185497321" class="icon" viewBox="0 0 1024 1024" version="1.1" xmlns="http://www.w3.org/2000/svg" p-id="84771" xmlns:xlink="http://www.w3.org/1999/xlink" width="200" height="200"><defs><style type="text/css"></style></defs><path d="M332.288 1008.192c32 6.08 43.712-14.272 43.712-31.552 0-15.68-0.64-67.328-0.896-122.112-177.92 39.68-215.424-77.44-215.424-77.44-29.12-75.904-70.976-96-70.976-96-58.048-40.832 4.416-39.936 4.416-39.936 64.192 4.608 97.984 67.584 97.984 67.584 57.088 100.352 149.632 71.296 186.112 54.592 5.76-42.432 22.272-71.36 40.576-87.808-142.08-16.576-291.328-72.832-291.328-324.288 0-71.616 24.96-130.176 65.856-176.064-6.656-16.64-28.544-83.264 6.144-173.632 0 0 53.76-17.664 176 67.2A598.72 598.72 0 0 1 534.4 46.72c54.4 0.256 109.12 7.552 160.192 22.08C816.64-16.128 870.336 1.536 870.336 1.536c34.816 90.368 12.992 157.12 6.336 173.632 40.96 45.888 65.792 104.448 65.792 176.064 0 252.032-149.632 307.52-292.032 323.712 22.976 20.352 43.392 60.288 43.392 121.472 0 87.808-0.64 158.464-0.64 180.032 0 17.472 11.456 37.888 43.904 31.488l-404.8 0.256z" p-id="84772" fill="#515151"></path></svg>