<?xml version="1.0" standalone="no"?><!DOCTYPE svg PUBLIC "-//W3C//DTD SVG 1.1//EN" "http://www.w3.org/Graphics/SVG/1.1/DTD/svg11.dtd"><svg t="1635326031011" class="icon" viewBox="0 0 1024 1024" version="1.1" xmlns="http://www.w3.org/2000/svg" p-id="2864" data-darkreader-inline-fill="" xmlns:xlink="http://www.w3.org/1999/xlink" width="48" height="48"><defs><style type="text/css"></style></defs><path d="M208.96 288H288a348.16 348.16 0 0 0-51.52 98.88A385.6 385.6 0 0 0 216.96 512a381.76 381.76 0 0 0 19.2 124.8A348.8 348.8 0 0 0 288 736H208.96a355.84 355.84 0 0 1-22.72-29.76 324.16 324.16 0 0 1-21.76-36.8 327.36 327.36 0 0 1-18.88-44.48 333.12 333.12 0 0 1-12.8-52.48A362.56 362.56 0 0 1 128 512a336 336 0 0 1 80.96-224z" fill="#DCDBDD" p-id="2865" style="--darkreader-inline-fill: #323435;" data-darkreader-inline-fill=""></path><path d="M578.24 734.08l-42.24-140.48q-9.28-32-17.6-66.24h-3.2q-5.12 25.28-15.04 64l-40.96 142.4h-99.2L467.52 448a41.92 41.92 0 0 0 3.2-16 64 64 0 0 0-3.2-16.32 119.68 119.68 0 0 0-27.84-44.16 52.48 52.48 0 0 0-36.8-16.64h-13.76l8.64-73.28a92.16 92.16 0 0 1 32-3.84 103.68 103.68 0 0 1 28.16 3.84 99.84 99.84 0 0 1 24.32 10.24 106.56 106.56 0 0 1 21.12 16.64 166.08 166.08 0 0 1 18.24 21.76 237.12 237.12 0 0 1 16 26.56q8 15.04 14.4 29.76t13.12 32l115.52 314.24z" fill="#F77737" p-id="2866" style="--darkreader-inline-fill: #ae4713;" data-darkreader-inline-fill=""></path><path d="M815.04 736H736a348.16 348.16 0 0 0 51.52-98.88 385.6 385.6 0 0 0 19.2-125.44 381.76 381.76 0 0 0-19.2-124.8A348.8 348.8 0 0 0 736 288h79.04a355.84 355.84 0 0 1 22.72 29.76 324.16 324.16 0 0 1 21.76 36.8 327.36 327.36 0 0 1 18.88 44.48 333.12 333.12 0 0 1 12.8 52.48A362.56 362.56 0 0 1 896 512a336 336 0 0 1-80.96 224z" fill="#DCDBDD" p-id="2867" style="--darkreader-inline-fill: #323435;" data-darkreader-inline-fill=""></path></svg>