<?xml version="1.0" standalone="no"?><!DOCTYPE svg PUBLIC "-//W3C//DTD SVG 1.1//EN" "http://www.w3.org/Graphics/SVG/1.1/DTD/svg11.dtd"><svg t="1623293784130" class="icon" viewBox="0 0 1024 1024" version="1.1" xmlns="http://www.w3.org/2000/svg" p-id="6617" xmlns:xlink="http://www.w3.org/1999/xlink" width="48" height="48"><defs><style type="text/css"></style></defs><path d="M512 1024a512 512 0 1 1 512-512 512 512 0 0 1-512 512z m204.012308-108.701538c-20.046769-53.956923-60.100923-161.476923-69.19877-194.953847a104.999385 104.999385 0 0 1-8.073846 9.058462 180.814769 180.814769 0 0 1-71.640615 41.353846 151.591385 151.591385 0 0 0-32.886154 17.723077 182.390154 182.390154 0 0 1-104.093538 37.021538c-2.993231 0-6.144-0.393846-9.216-0.393846a134.380308 134.380308 0 0 1-90.584616-42.92923 147.968 147.968 0 0 0-27.096615-21.661539c-5.986462-3.544615-11.815385-7.089231-16.896-10.633846a1374.72 1374.72 0 0 1-31.783385 133.907692 451.544615 451.544615 0 0 0 461.469539 31.507693zM326.813538 485.612308c17.801846-2.363077 34.697846 21.661538 37.769847 53.16923v1.575385a128.512 128.512 0 0 1 31.035077-12.209231c0-2.756923 0-5.907692-0.236308-8.664615v-0.393846c-3.229538-55.532308-35.091692-99.249231-71.246769-96.886154s-62.818462 48.836923-59.588923 104.763077a132.174769 132.174769 0 0 0 24.300307 71.68l12.406154-9.058462c4.489846-3.544615 8.349538-6.301538 9.728-7.483077a85.858462 85.858462 0 0 1-10.830769-35.446153 51.908923 51.908923 0 0 1 26.742154-61.046154z m15.753847 120.910769c-1.654154 1.575385-3.150769 3.150769-4.608 4.332308a117.563077 117.563077 0 0 1-13.508923 10.24l-38.084924 28.356923a25.481846 25.481846 0 0 0-11.618461 22.44923 81.959385 81.959385 0 0 0 47.970461 54.35077H322.953846a187.785846 187.785846 0 0 1 33.831385 26.781538 94.523077 94.523077 0 0 0 66.205538 32.689231 41.629538 41.629538 0 0 0 6.971077 0.393846 147.259077 147.259077 0 0 0 82.707692-30.72 178.609231 178.609231 0 0 1 42.023385-22.055385c35.446154-11.421538 74.200615-38.990769 75.460923-68.52923a43.323077 43.323077 0 0 0-32.925538-37.021539l-0.275693-0.393846c-16.580923-7.089231-28.947692-11.421538-39.85723-14.966154a176.088615 176.088615 0 0 1-42.889847-19.298461 161.161846 161.161846 0 0 0-85.346461-29.538462A123.273846 123.273846 0 0 0 342.646154 606.523077z m118.390153-83.101539v4.332308a217.324308 217.324308 0 0 1 41.393231 13.784616v-3.544616a57.659077 57.659077 0 0 1 42.653539-63.803077 55.138462 55.138462 0 0 1 39.936 64.196923 89.206154 89.206154 0 0 1-9.216 38.596923c12.445538 4.332308 24.772923 9.058462 36.864 14.178462 3.150769 1.575385 6.262154 2.756923 9.294769 4.332308a137.846154 137.846154 0 0 0 20.558769-76.8c-1.299692-64.590769-43.047385-115.790769-93.184-114.609231s-89.796923 54.744615-88.457846 119.335384zM512 59.864615a451.859692 451.859692 0 0 0-325.198769 766.03077 761.265231 761.265231 0 0 0 46.592-192.196923c4.804923-114.215385-80.856615-455.68 242.215384-481.673847 327.246769-25.993846 309.681231 296.96 307.79077 467.889231a343.867077 343.867077 0 0 0 68.450461 189.833846A451.702154 451.702154 0 0 0 512 59.864615z m52.696615 589.193847a19.692308 19.692308 0 0 1 25.284923 9.846153 20.125538 20.125538 0 0 1-8.664615 25.993847 317.479385 317.479385 0 0 1-136.940308 27.175384c-8.743385 0-16.777846-0.393846-24.142769-0.787692a241.624615 241.624615 0 0 1-108.347077-30.72 19.692308 19.692308 0 0 1-8.979692-17.723077 19.377231 19.377231 0 0 1 11.185231-16.541539 19.889231 19.889231 0 0 1 19.692307 1.575385 201.058462 201.058462 0 0 0 89.127385 24.024615 273.801846 273.801846 0 0 0 141.784615-22.843076z" p-id="6618" fill="#f4ea2a"></path></svg>