<?xml version="1.0" standalone="no"?><!DOCTYPE svg PUBLIC "-//W3C//DTD SVG 1.1//EN" "http://www.w3.org/Graphics/SVG/1.1/DTD/svg11.dtd"><svg t="1622189896393" class="icon" viewBox="0 0 1024 1024" version="1.1" xmlns="http://www.w3.org/2000/svg" p-id="15577" xmlns:xlink="http://www.w3.org/1999/xlink" width="48" height="48"><defs><style type="text/css"></style></defs><path d="M512 512m-512 0a512 512 0 1 0 1024 0 512 512 0 1 0-1024 0Z" fill="#F2CF61" p-id="15578"></path><path d="M871.584 871.32c-0.528-1.368-1.104-2.712-1.648-4.072-0.512-1.336-1.064-2.656-1.6-3.984-0.552-1.44-1.152-2.832-1.712-4.248-0.528-1.376-1.112-2.728-1.656-4.096-0.528-1.376-1.112-2.736-1.656-4.096-0.528-1.376-1.112-2.736-1.656-4.104-0.528-1.376-1.112-2.728-1.656-4.096-0.528-1.376-1.112-2.728-1.656-4.104-0.528-1.376-1.112-2.72-1.656-4.096-0.528-1.376-1.104-2.728-1.656-4.096-0.528-1.368-1.096-2.712-1.64-4.072-0.528-1.4-1.12-2.76-1.672-4.136-0.528-1.376-1.104-2.728-1.656-4.096-0.528-1.376-1.104-2.728-1.656-4.096-0.528-1.376-1.104-2.736-1.656-4.096-0.528-1.376-1.104-2.736-1.656-4.104-0.504-1.32-1.064-2.632-1.592-3.944-0.536-1.44-1.144-2.832-1.704-4.248-0.528-1.376-1.112-2.736-1.656-4.096-0.528-1.376-1.104-2.72-1.656-4.08-0.52-1.392-1.112-2.752-1.656-4.128-0.528-1.376-1.112-2.736-1.656-4.096-0.528-1.376-1.112-2.736-1.656-4.104-0.528-1.376-1.112-2.728-1.656-4.096-0.528-1.376-1.112-2.728-1.656-4.104-0.528-1.376-1.112-2.72-1.656-4.096-0.528-1.376-1.112-2.728-1.656-4.096-0.528-1.376-1.112-2.728-1.656-4.096-0.528-1.376-1.096-2.72-1.648-4.08-0.528-1.392-1.12-2.752-1.664-4.128-0.528-1.376-1.112-2.728-1.656-4.096-0.528-1.376-1.112-2.736-1.656-4.096-0.512-1.328-1.064-2.64-1.592-3.952-0.544-1.44-1.144-2.832-1.712-4.248-0.52-1.376-1.104-2.728-1.656-4.096-0.52-1.376-1.104-2.736-1.656-4.096-0.52-1.376-1.104-2.736-1.656-4.104-0.52-1.376-1.104-2.728-1.656-4.096-0.52-1.368-1.096-2.712-1.64-4.072-0.536-1.392-1.12-2.752-1.672-4.136-0.52-1.376-1.104-2.728-1.656-4.096-0.52-1.376-1.104-2.728-1.656-4.104-0.52-1.376-1.104-2.72-1.656-4.096-0.52-1.376-1.104-2.728-1.656-4.096-0.52-1.376-1.104-2.728-1.656-4.096-0.52-1.376-1.104-2.736-1.648-4.096-0.528-1.376-1.112-2.736-1.656-4.104-0.504-1.32-1.064-2.616-1.592-3.912-0.544-1.448-1.144-2.848-1.72-4.28-0.52-1.376-1.104-2.736-1.656-4.096-0.52-1.384-1.104-2.736-1.656-4.104-0.52-1.376-1.104-2.728-1.656-4.096-0.52-1.384-1.104-2.728-1.656-4.104-0.52-1.376-1.104-2.72-1.656-4.096-0.52-1.376-1.104-2.728-1.656-4.096-0.52-1.376-1.096-2.728-1.656-4.096-0.52-1.376-1.096-2.736-1.656-4.096-0.52-1.376-1.096-2.72-1.64-4.08-0.528-1.392-1.112-2.752-1.672-4.128-0.52-1.376-1.096-2.736-1.648-4.096-0.528-1.376-1.104-2.736-1.656-4.104-0.528-1.376-1.104-2.728-1.656-4.096-0.504-1.328-1.072-2.632-1.592-3.952-0.552-1.424-1.152-2.832-1.712-4.248-0.528-1.376-1.112-2.728-1.656-4.096-0.528-1.376-1.112-2.728-1.656-4.104-0.528-1.36-1.096-2.704-1.64-4.064-0.528-1.392-1.128-2.76-1.672-4.136-0.528-1.376-1.112-2.728-1.656-4.096-0.528-1.384-1.104-2.728-1.656-4.104-0.528-1.376-1.104-2.72-1.656-4.096-0.528-1.376-1.104-2.728-1.656-4.096-0.528-1.376-1.104-2.728-1.656-4.096-0.528-1.376-1.104-2.736-1.656-4.096-0.528-1.384-1.104-2.736-1.656-4.104-0.528-1.376-1.104-2.728-1.656-4.096-0.528-1.368-1.096-2.712-1.64-4.072-0.512-1.344-1.072-2.656-1.608-3.984-0.536-1.44-1.144-2.832-1.704-4.248-0.528-1.376-1.112-2.736-1.656-4.096-0.528-1.376-1.112-2.736-1.656-4.096-0.528-1.384-1.112-2.736-1.656-4.104-0.528-1.376-1.112-2.728-1.656-4.096-0.528-1.384-1.112-2.728-1.656-4.104-14.568-37.744-37.296-71.08-58.328-97.096-0.128-0.296-0.28-0.576-0.424-0.864-0.528-1.368-1.056-2.752-1.656-4.096-0.528-1.368-1.056-2.76-1.656-4.096-0.528-1.368-1.056-2.752-1.656-4.096-0.528-1.368-1.048-2.76-1.656-4.096-0.528-1.368-1.048-2.744-1.656-4.08-0.528-1.384-1.048-2.768-1.656-4.12-0.52-1.352-1.032-2.712-1.624-4.032-0.536-1.4-1.064-2.8-1.672-4.168-0.536-1.368-1.064-2.76-1.656-4.096-0.536-1.368-1.064-2.752-1.656-4.096-0.536-1.368-1.064-2.76-1.656-4.096-0.536-1.368-1.064-2.752-1.656-4.096-0.536-1.368-1.064-2.76-1.656-4.096-0.536-1.368-1.064-2.752-1.656-4.096-0.536-1.368-1.048-2.744-1.656-4.08-0.536-1.376-1.064-2.768-1.656-4.12a95.232 95.232 0 0 0-1.656-4.096c-0.528-1.368-1.056-2.76-1.656-4.096-0.528-1.368-1.056-2.752-1.656-4.096-0.528-1.368-1.056-2.76-1.656-4.096-0.528-1.368-1.056-2.752-1.656-4.096-0.528-1.352-1.032-2.712-1.624-4.032-0.544-1.4-1.072-2.8-1.68-4.168-0.536-1.368-1.056-2.76-1.656-4.096-0.536-1.368-1.056-2.752-1.656-4.096-0.536-1.368-1.048-2.744-1.656-4.08-0.536-1.376-1.048-2.768-1.656-4.12-0.536-1.368-1.056-2.752-1.648-4.096-0.544-1.368-1.064-2.76-1.656-4.096-0.544-1.368-1.064-2.752-1.656-4.096-0.536-1.368-1.064-2.76-1.656-4.096-0.536-1.368-1.064-2.752-1.656-4.096-0.536-1.368-1.064-2.76-1.656-4.096-0.536-1.368-1.064-2.752-1.656-4.096-0.536-1.368-1.064-2.76-1.656-4.096-0.536-1.368-1.048-2.744-1.656-4.08-0.528-1.36-1.032-2.728-1.624-4.048-0.544-1.392-1.08-2.8-1.688-4.168-0.528-1.368-1.048-2.752-1.656-4.096-0.528-1.368-1.048-2.76-1.656-4.096-0.528-1.368-1.048-2.752-1.656-4.096-0.528-1.368-1.048-2.76-1.648-4.096-0.536-1.368-1.056-2.752-1.656-4.096-13-33.208-46.224-56.896-85.28-56.896-50.36 0-87.256 39.504-91.192 87.768-1.016 12.416 8.456 92.4 10.864 130.504-45.568 42.672-123.52 148.832-119.304 248.528l1.36 1.616c-34.768 9.376-84.424 58.168-69.072 93.768 0.32 0.736 0.712 1.432 1.048 2.16 0.232 0.64 0.336 1.312 0.608 1.944 0.32 0.744 0.712 1.432 1.048 2.168 0.232 0.64 0.336 1.312 0.608 1.936 0.32 0.744 0.712 1.44 1.048 2.168 0.224 0.64 0.336 1.312 0.608 1.944 0.32 0.736 0.712 1.432 1.048 2.16 0.224 0.64 0.336 1.312 0.608 1.944 0.32 0.744 0.712 1.432 1.048 2.168 0.224 0.64 0.336 1.312 0.608 1.936 0.32 0.736 0.712 1.44 1.048 2.168 0.224 0.64 0.336 1.312 0.608 1.944 0.304 0.72 0.696 1.4 1.024 2.112 0.232 0.656 0.344 1.336 0.624 1.992 0.312 0.728 0.704 1.432 1.048 2.152 0.232 0.656 0.336 1.328 0.608 1.952 0.312 0.736 0.712 1.44 1.048 2.168 0.232 0.64 0.336 1.312 0.608 1.944 0.312 0.736 0.712 1.432 1.048 2.16 0.232 0.64 0.336 1.312 0.608 1.944 0.312 0.736 0.704 1.432 1.048 2.168 0.232 0.64 0.336 1.312 0.608 1.936 0.312 0.736 0.704 1.44 1.048 2.168 0.232 0.64 0.328 1.312 0.608 1.944 0.312 0.736 0.704 1.432 1.048 2.16 0.232 0.64 0.328 1.312 0.608 1.944 0.312 0.736 0.704 1.432 1.048 2.168 0.232 0.64 0.328 1.312 0.608 1.936 0.312 0.736 0.704 1.44 1.048 2.168 0.232 0.632 0.328 1.304 0.608 1.944 0.312 0.736 0.704 1.432 1.048 2.16 0.232 0.64 0.328 1.312 0.608 1.944 0.312 0.736 0.704 1.432 1.048 2.168 0.224 0.64 0.328 1.312 0.608 1.936 0.312 0.736 0.704 1.424 1.048 2.16 0.224 0.64 0.328 1.312 0.608 1.952 0.312 0.736 0.704 1.432 1.048 2.16 0.224 0.64 0.328 1.312 0.608 1.944 0.312 0.736 0.704 1.432 1.048 2.168 0.224 0.632 0.328 1.304 0.608 1.936 0.312 0.736 0.704 1.44 1.048 2.16 0.224 0.64 0.328 1.312 0.6 1.952 0.312 0.72 0.696 1.392 1.024 2.112 0.24 0.656 0.344 1.336 0.624 1.992 0.32 0.736 0.72 1.432 1.048 2.16 0.232 0.64 0.344 1.312 0.608 1.944 0.32 0.736 0.72 1.44 1.048 2.16 0.232 0.64 0.344 1.312 0.608 1.952 0.32 0.736 0.712 1.424 1.048 2.16 0.232 0.64 0.344 1.312 0.608 1.944 0.32 0.736 0.712 1.432 1.048 2.16 0.232 0.64 0.336 1.312 0.608 1.944 0.32 0.736 0.712 1.44 1.048 2.16 0.232 0.64 0.336 1.312 0.608 1.952 0.32 0.736 0.712 1.424 1.048 2.16 0.232 0.64 0.336 1.312 0.608 1.936 0.312 0.736 0.704 1.432 1.048 2.16 0.232 0.648 0.336 1.32 0.608 1.952 0.32 0.736 0.712 1.432 1.048 2.16 0.232 0.64 0.336 1.312 0.608 1.952 0.32 0.736 0.712 1.424 1.048 2.16 0.232 0.64 0.336 1.312 0.608 1.936 0.32 0.744 0.712 1.44 1.048 2.168 0.232 0.64 0.336 1.312 0.608 1.944 0.32 0.736 0.712 1.432 1.048 2.16 0.232 0.64 0.336 1.312 0.608 1.944 0.32 0.744 0.712 1.432 1.048 2.168 0.232 0.64 0.336 1.312 0.608 1.936 0.32 0.744 0.712 1.44 1.048 2.168 0.232 0.64 0.336 1.312 0.608 1.944 0.32 0.736 0.712 1.432 1.048 2.16 0.232 0.64 0.336 1.312 0.608 1.944 0.312 0.728 0.696 1.4 1.024 2.12 0.24 0.656 0.344 1.328 0.616 1.984 0.328 0.736 0.72 1.44 1.056 2.168 0.224 0.64 0.336 1.312 0.6 1.944 0.312 0.728 0.712 1.432 1.056 2.152 0.224 0.648 0.336 1.32 0.6 1.952 0.328 0.744 0.72 1.432 1.056 2.168 0.224 0.64 0.336 1.312 0.6 1.936 0.328 0.736 0.72 1.44 1.056 2.168 0.224 0.64 0.336 1.312 0.6 1.944 0.328 0.736 0.72 1.432 1.048 2.16 0.232 0.64 0.344 1.312 0.608 1.944 0.328 0.736 0.72 1.432 1.048 2.168 0.232 0.64 0.344 1.312 0.608 1.936 0.328 0.736 0.72 1.44 1.048 2.168 0.232 0.64 0.344 1.312 0.608 1.944 0.328 0.736 0.72 1.432 1.048 2.16 0.232 0.64 0.344 1.312 0.608 1.944 0.328 0.736 0.72 1.432 1.048 2.168 0.232 0.64 0.344 1.312 0.608 1.936 0.328 0.736 0.72 1.44 1.048 2.168 0.232 0.632 0.344 1.304 0.608 1.944 0.328 0.736 0.72 1.432 1.048 2.16 0.232 0.64 0.344 1.312 0.608 1.944 0.312 0.728 0.704 1.424 1.048 2.152 0.232 0.656 0.344 1.328 0.608 1.952 0.328 0.736 0.72 1.44 1.048 2.16 0.232 0.64 0.344 1.312 0.608 1.952 0.32 0.736 0.72 1.432 1.048 2.16 0.232 0.64 0.344 1.312 0.608 1.944 0.312 0.72 0.704 1.4 1.032 2.112 0.232 0.656 0.344 1.336 0.616 1.992 0.32 0.736 0.712 1.44 1.056 2.16 0.224 0.64 0.328 1.312 0.6 1.952 0.32 0.736 0.712 1.432 1.056 2.16 0.224 0.64 0.328 1.312 0.6 1.944 0.32 0.736 0.712 1.432 1.056 2.16 0.224 0.64 0.328 1.312 0.6 1.944 0.32 0.736 0.712 1.44 1.048 2.16 0.232 0.64 0.336 1.312 0.608 1.952 0.32 0.736 0.712 1.424 1.048 2.16 0.232 0.64 0.336 1.312 0.608 1.944 0.32 0.736 0.712 1.432 1.048 2.16 0.232 0.64 0.336 1.312 0.608 1.944 0.08 0.184 0.176 0.36 0.264 0.544C398.248 1014.2 453.96 1024 512 1024c140.888 0 268.488-56.936 361.064-149.032a384.72 384.72 0 0 0-1.48-3.648z" fill="#E6C45C" p-id="15579"></path><path d="M434.992 803.08c31.656 13.392 113.12 22.408 200.08-9.856l106.52-141.92c38.696-141.384-113.96-268.208-118.816-278.624-4.792-10.384-14.296-88.904-14.296-88.904 0-48.456-40.832-87.768-91.192-87.768s-87.256 39.504-91.192 87.768c-1.016 12.416 8.456 92.4 10.864 130.504-45.568 42.672-123.52 148.832-119.304 248.52l117.336 140.28z" fill="#263740" p-id="15580"></path><path d="M622.8 372.672c-4.8-10.384-14.312-88.904-14.312-88.904 0-48.456-40.832-87.768-91.184-87.768-5.488 0-10.784 0.552-15.912 1.448 42.672 7.328 75.12 43.16 75.12 86.328 0 0 9.504 78.52 14.296 88.904 4.84 10.408 157.504 137.24 118.816 278.624L603.096 793.216a354.16 354.16 0 0 1-105.432 21.624c38.152 1.904 86.824-2.832 137.432-21.624l106.512-141.912c38.68-141.392-113.976-268.216-118.808-278.632z" fill="#1E2C33" p-id="15581"></path><path d="M644.368 821.576c-20.336-34.92-17.52-147.232 6.304-172.992 33.408-10.088 118.232-8.168 125.336 37.36 11.16 71.072-82.352 153.392-131.64 135.632z" fill="#F5F5F5" p-id="15582"></path><path d="M776.008 685.952c-5.336-34.2-54.536-43.8-92.848-42.168 34.824 1.44 72.232 12.592 76.848 42.168 9.576 61-57.928 130.216-108.432 137.4 50.608 8.24 135.064-69.656 124.432-137.4z" fill="#E6E6E6" p-id="15583"></path><path d="M435.504 808.696c-1.344-40.016-54.856-132.52-98.344-144.864-30.936-9.704-105.56 51.792-87.2 94.36 28.656 66.336 152.872 90.224 185.544 50.504z" fill="#F5F5F5" p-id="15584"></path><path d="M337.16 663.832c-4.504-1.416-9.936-1.28-15.864 0.032 43.464 12.504 96.864 104.848 98.208 144.832-9.608 11.688-27.168 17.832-47.856 19.04 27.472 1.544 51.84-4.432 63.856-19.04-1.344-40.024-54.872-132.528-98.344-144.864z" fill="#E6E6E6" p-id="15585"></path><path d="M479.288 374c6.048-8 24.408-19.944 41.712-26.856 19-2.456 38.664 2.856 49.488 7.504 7.176 39.688-17.152 30.352-40.152 68.688-36.384-22.28-46-21.672-51.048-49.336z" fill="#FFD464" p-id="15586"></path></svg>