<?xml version="1.0" standalone="no"?><!DOCTYPE svg PUBLIC "-//W3C//DTD SVG 1.1//EN" "http://www.w3.org/Graphics/SVG/1.1/DTD/svg11.dtd"><svg t="1635325623732" class="icon" viewBox="0 0 1024 1024" version="1.1" xmlns="http://www.w3.org/2000/svg" p-id="2444" data-darkreader-inline-fill="" xmlns:xlink="http://www.w3.org/1999/xlink" width="48" height="48"><defs><style type="text/css"></style></defs><path d="M512 85.333333C276.608 85.333333 85.333333 276.608 85.333333 512s191.274667 426.666667 426.666667 426.666667 426.666667-191.274667 426.666667-426.666667S747.392 85.333333 512 85.333333z m0 69.12A357.376 357.376 0 0 1 869.546667 512a357.034667 357.034667 0 0 1-200.277334 320.853333c-2.432 0.256-4.821333 0.725333-7.253333 0.896a192.298667 192.298667 0 0 1-70.314667-8.106666 190.634667 190.634667 0 0 1-17.92-6.656 192.256 192.256 0 0 1-17.365333-8.234667 192.426667 192.426667 0 0 1-31.488-21.674667 191.616 191.616 0 0 1-14.08-13.013333 193.493333 193.493333 0 0 1-53.333333-152.832c0.64-6.357333 1.706667-12.714667 2.986666-18.986667a191.445333 191.445333 0 0 1 11.264-36.565333 191.573333 191.573333 0 0 1 36.138667-55.850667 155.989333 155.989333 0 0 0 17.749333-22.186666 191.658667 191.658667 0 0 0 29.696-70.144 192.725333 192.725333 0 0 0 3.84-38.186667 190.976 190.976 0 0 0-7.04-51.2 192.64 192.64 0 0 0-5.973333-18.261333 192.426667 192.426667 0 0 0-7.936-17.493334 192 192 0 0 0-20.650667-32.256 190.933333 190.933333 0 0 0-12.672-14.336 192.682667 192.682667 0 0 0-29.269333-24.746666 193.706667 193.706667 0 0 0-70.186667-29.653334 192.597333 192.597333 0 0 0-38.144-3.84c-3.328 0-6.656 0.213333-9.984 0.426667A355.712 355.712 0 0 1 512 154.368z m65.322667 118.784c30.976 42.453333 57.088 77.397333 62.72 124.416 7.509333 62.293333-68.992 219.989333-99.541334 265.344h62.506667c22.016-34.176 70.485333-138.666667 84.736-182.016 16.341333 29.696 55.338667 143.658667 64.170667 182.016h56.917333c-21.589333-83.584-64.64-215.082667-168.661333-387.925333 0 0-42.24-1.834667-62.848-1.834667zM213.674667 361.002667h56.917333c8.832 38.357333 47.786667 152.32 64.170667 182.016 14.208-43.349333 62.72-147.84 84.736-182.016h62.506666c-30.592 45.354667-107.093333 203.093333-99.584 265.344 5.632 47.018667 31.786667 81.962667 62.72 124.416-20.608 0-62.805333-1.834667-62.805333-1.834667-104.064-172.8-147.072-304.341333-168.661333-387.925333z" fill="#EF5350" p-id="2445" style="--darkreader-inline-fill: #981715;" data-darkreader-inline-fill=""></path></svg>