<?xml version="1.0" standalone="no"?><!DOCTYPE svg PUBLIC "-//W3C//DTD SVG 1.1//EN" "http://www.w3.org/Graphics/SVG/1.1/DTD/svg11.dtd"><svg t="1622189603650" class="icon" viewBox="0 0 1024 1024" version="1.1" xmlns="http://www.w3.org/2000/svg" p-id="2490" xmlns:xlink="http://www.w3.org/1999/xlink" width="48" height="48"><defs><style type="text/css"></style></defs><path d="M730.10827 491.606831C687.525723 608.708835 616.016078 732.655016 616.016078 732.655016h-81.293953c18.711158-30.32458 160.652336-277.75434 126.063694-383.860369-12.219255-37.48619-42.464477-82.92951-77.029891-132.936905l81.321051 1.383933C763.055548 359.860302 831.336662 539.355415 890.867062 732.655016h-75.487242c-25.975354-87.263252-52.879781-171.897999-85.27155-241.048185zM983.296352 512c0 273.660609-214.699266 495.506-479.543352 495.506S24.209648 785.660609 24.209648 512 238.908914 16.494 503.753 16.494s479.543352 221.845391 479.543352 495.506z m-577.632249 304.780708c-34.565415-50.007395-63.016363-98.019216-77.027956-134.87441-32.956956-86.676774 94.759716-331.234148 124.921708-375.856786 1.465227-2.163968-0.106456-5.078936-2.719476-5.065387l-75.549181-2.54334S300.518117 420.06041 259.309825 539.096049c-32.391769-69.152121-59.296197-153.786868-85.269614-241.048185h-75.487242c59.530401 193.297665 127.811514 374.730284 225.790083 517.348911l81.319116 1.383933z m226.808194 129.232223c15.790383 0.090972 33.996357 0.067745 49.357043-0.290335C845.106309 874.06004 959.622391 706.857734 959.622391 512 959.61852 251.851608 755.520373 40.959609 503.753 40.959609c-75.467886 0-146.646549 18.951169-209.333865 52.492667 261.882663-21.970659 356.744964 280.046055 199.894089 432.967723-56.766406 55.341826-91.693772 163.168577-57.157392 259.695469 29.548416 82.579172 103.282032 146.572997 195.316465 159.897463z" p-id="2491" fill="#2c2c2c"></path></svg>