<?xml version="1.0" standalone="no"?><!DOCTYPE svg PUBLIC "-//W3C//DTD SVG 1.1//EN" "http://www.w3.org/Graphics/SVG/1.1/DTD/svg11.dtd"><svg t="1632926735867" class="icon" viewBox="0 0 1170 1024" version="1.1" xmlns="http://www.w3.org/2000/svg" p-id="29099" data-darkreader-inline-fill="" xmlns:xlink="http://www.w3.org/1999/xlink" width="54.84375" height="48"><defs><style type="text/css"></style></defs><path d="M100.57142844 854.85714312v137.14285688h137.14285687v-68.57142844h68.57142938v-68.57142844h68.57142844v-68.57142843H169.14285688v68.57142844H100.57142844z" fill="#834026" p-id="29100" style="--darkreader-inline-fill: #6c3e2d;" data-darkreader-inline-fill=""></path><path d="M992 580.57142844h68.57142844v-68.57142844h68.57142844v342.85714312h-137.14285688V580.57142844z" fill="#824125" p-id="29101" style="--darkreader-inline-fill: #6c3f2d;" data-darkreader-inline-fill=""></path><path d="M854.85714312 100.57142844V32h205.71428532v137.14285688h-137.14285688V100.57142844h-68.57142843z" fill="#EEBE8E" p-id="29102" style="--darkreader-inline-fill: #724a22;" data-darkreader-inline-fill=""></path><path d="M32 717.71428531v-137.14285687h205.71428531v137.14285687H169.14285688v68.57142938H100.57142844v-68.57142938" fill="#EEBE8D" p-id="29103" style="--darkreader-inline-fill: #734a22;" data-darkreader-inline-fill=""></path><path d="M169.14285688 512h685.71428625V169.14285688H306.28571469V100.57142844h68.57142844V32h342.85714218v68.57142844h205.71428625v68.57142844h137.14285688v205.71428625h-68.57142844v137.14285687h-68.57142844v68.57142844h-68.57142843v68.57142844H512v68.57142843h-68.57142844v68.57142938h-68.57142844v-68.57142938h-137.14285781v-68.57142843H169.14285688v-137.14285688z" fill="#D23D29" p-id="29104" style="--darkreader-inline-fill: #a23d2f;" data-darkreader-inline-fill=""></path><path d="M306.28571469 717.71428531v68.57142938h68.57142844v68.57142844h-68.57142844v68.57142843h411.42857062v-68.57142843h274.28571469V644.85714312l-137.14285687 4.28571376v68.57142843h-68.57142844v-68.57142843h68.57142844v-68.57142844h-68.57142844v-68.57142844h-68.57142938v68.57142844h68.57142938v68.57142844H580.57142844v-68.57142844h-68.57142844v-68.57142844h-68.57142844v68.57142844h68.57142844v137.14285687h-68.57142844v68.57142938h-68.57142844v-68.57142938h-68.57142843z" fill="#494ED0" p-id="29105" style="--darkreader-inline-fill: #343893;" data-darkreader-inline-fill=""></path><path d="M580.57142844 717.71428531h68.57142844v68.57142938h-68.57142844v-68.57142938zM786.28571469 649.14285688h68.57142844v68.57142843h-68.57142844v-68.57142844z" fill="#FCF336" p-id="29106" style="--darkreader-inline-fill: #a49e16;" data-darkreader-inline-fill=""></path><path d="M374.85714312 512h480.00000001v-137.14285688h137.14285687v-68.57142843h-68.57142844v-68.57142938h-137.14285687V169.14285688H306.28571469v205.71428625h68.57142844" fill="#EEBF8C" p-id="29107" style="--darkreader-inline-fill: #734c22;" data-darkreader-inline-fill=""></path><path d="M237.71428531 237.71428531h68.57142938v137.14285781h68.57142843v68.57142844h-137.14285781V237.71428531z" fill="#834026" p-id="29108" style="--darkreader-inline-fill: #6c3e2d;" data-darkreader-inline-fill=""></path><path d="M306.28571469 169.14285688v68.57142843h68.57142844v137.14285782h137.14285687v-68.57142844h-68.57142844v-68.57142938h68.57142844V169.14285688H306.28571469z" fill="#833F28" p-id="29109" style="--darkreader-inline-fill: #6c3e2e;" data-darkreader-inline-fill=""></path><path d="M649.14285688 374.85714312h68.57142843v-68.57142843h68.57142938v68.57142844h137.14285687v68.57142843H649.14285688v-68.57142844zM649.14285688 169.14285688h68.57142843v137.14285781h-68.57142844V169.14285688z" p-id="29110"></path></svg>