<?xml version="1.0" standalone="no"?><!DOCTYPE svg PUBLIC "-//W3C//DTD SVG 1.1//EN" "http://www.w3.org/Graphics/SVG/1.1/DTD/svg11.dtd"><svg t="1622694852366" class="icon" viewBox="0 0 1024 1024" version="1.1" xmlns="http://www.w3.org/2000/svg" p-id="16256" data-darkreader-inline-fill="" xmlns:xlink="http://www.w3.org/1999/xlink" width="48" height="48"><defs><style type="text/css"></style></defs><path d="M86.016 86.016h170.016v84H170.016v684h86.016v84H86.016V86.016z m768 84H768V86.016h170.016v852H768v-84h86.016V170.016zM384 214.016h42.016v212h44v44h-128v-44h42.016V256l-42.016 22.016V234.016l42.016-20z m256 340h42.016v214.016h44v42.016h-128v-42.016h42.016v-170.016l-42.016 20V576l42.016-22.016z m-256 0q36 0 60.992 38.016t24.992 91.008-24.992 90.016T384 810.048t-60.992-36.992-24.992-90.016 24.992-91.008T384 554.016z m0 44q-18.016 0-30.016 24.992t-12 60 12 60T384 768t30.016-24.992 12-60-12-60-30.016-24.992z m256-384q36 0 60.992 36.992t24.992 90.016-24.992 91.008T640 470.048t-60.992-38.016-24.992-91.008 24.992-90.016T640 214.016zM640 256q-18.016 0-30.016 24.992t-12 60 12 60 30.016 24.992 30.016-24.992 12-60-12-60T640 256z" p-id="16257" fill="#8a8a8a" style="--darkreader-inline-fill:#606669;" data-darkreader-inline-fill=""></path></svg>