<?xml version="1.0" standalone="no"?><!DOCTYPE svg PUBLIC "-//W3C//DTD SVG 1.1//EN" "http://www.w3.org/Graphics/SVG/1.1/DTD/svg11.dtd"><svg t="1622695399665" class="icon" viewBox="0 0 1024 1024" version="1.1" xmlns="http://www.w3.org/2000/svg" p-id="38500" data-darkreader-inline-fill="" xmlns:xlink="http://www.w3.org/1999/xlink" width="48" height="48"><defs><style type="text/css"></style></defs><path d="M112 496.768a16 16 0 0 1 16 16c0 212.096 171.936 384 384 384 156.352 0 294.752-94.304 353.984-234.848l-70.592 34.368a16 16 0 0 1-19.904-4.896l-1.472-2.464a16 16 0 0 1 4.896-19.904l2.464-1.472 115.04-56.128 57.056 116.992a16 16 0 0 1-27.264 16.48l-1.504-2.464-31.104-63.744A416.16 416.16 0 0 1 512 928.768c-229.76 0-416-186.24-416-416a16 16 0 0 1 16-16zM512 96.768c229.76 0 416 186.24 416 416a16 16 0 1 1-32 0c0-212.064-171.936-384-384-384-157.76 0-297.28 96.032-355.52 238.656l70.496-27.072a16 16 0 0 1 19.424 6.624l1.28 2.56a16 16 0 0 1-6.624 19.424l-2.592 1.28-119.52 45.856L72.32 294.592a16 16 0 0 1 28.608-14.08l1.28 2.592 26.208 68.384A416.16 416.16 0 0 1 512 96.768z" fill="#5D6D7E" p-id="38501" style="--darkreader-inline-fill:#525d69;" data-darkreader-inline-fill=""></path><path d="M432 256a80 80 0 1 1 0 160 80 80 0 0 1 0-160zM480 448a64 64 0 1 1 0 128 64 64 0 0 1 0-128z m0 32a32 32 0 1 0 0 64 32 32 0 0 0 0-64z m160-160a64 64 0 0 1 55.424 96.032h-110.848A64 64 0 0 1 640 320z m0 32a32 32 0 1 0 0 64 32 32 0 0 0 0-64z" fill="#27A2DF" p-id="38502" style="--darkreader-inline-fill:#297da7;" data-darkreader-inline-fill=""></path><path d="M704.8 384.32H287.68a31.84 31.84 0 0 0-31.84 31.84l0.224 5.28c1.12 12.224 6.176 23.808 14.4 33.056l145.984 163.008v130.624a48 48 0 0 0 81.92 33.952l63.488-63.424 3.2-3.52a48 48 0 0 0 10.88-30.432l-0.032-67.168 146.08-163.04c9.44-10.56 14.656-24.192 14.656-38.336a31.84 31.84 0 0 0-31.84-31.872z m-416.96 31.936H704.64a25.216 25.216 0 0 1-6.464 16.864l-154.24 172.16v79.424a16 16 0 0 1-4.704 11.296l-63.456 63.456a16 16 0 0 1-27.328-11.328v-142.816l-154.112-172.16-2.304-2.976a25.472 25.472 0 0 1-3.936-10.304l-0.256-3.616z" fill="#95A1AF" p-id="38503" style="--darkreader-inline-fill:#4f5762;" data-darkreader-inline-fill=""></path></svg>