<?xml version="1.0" standalone="no"?><!DOCTYPE svg PUBLIC "-//W3C//DTD SVG 1.1//EN" "http://www.w3.org/Graphics/SVG/1.1/DTD/svg11.dtd"><svg t="1622190247698" class="icon" viewBox="0 0 1024 1024" version="1.1" xmlns="http://www.w3.org/2000/svg" p-id="24611" xmlns:xlink="http://www.w3.org/1999/xlink" width="48" height="48"><defs><style type="text/css"></style></defs><path d="M38.912 34.304h960.512v960.512H38.912z" fill-opacity="0" p-id="24612"></path><path d="M394.24 560.64c-76.8 0-139.264-62.464-139.264-139.264S317.44 282.112 394.24 282.112s139.264 62.464 139.264 139.264S471.04 560.64 394.24 560.64z m0-235.52c-53.248 0-96.256 43.008-96.256 96.256s43.008 96.256 96.256 96.256 96.256-43.008 96.256-96.256S447.488 325.12 394.24 325.12zM171.008 891.904c-88.576 0-160.768-71.68-160.768-160.768s72.192-160.768 160.768-160.768 160.768 72.192 160.768 160.768-72.192 160.768-160.768 160.768z m0-278.528c-65.024 0-117.76 52.736-117.76 117.76s52.736 117.76 117.76 117.76 117.76-52.736 117.76-117.76-52.736-117.76-117.76-117.76zM691.712 845.824c-76.8 0-139.264-62.464-139.264-139.264s62.464-139.264 139.264-139.264 139.264 62.464 139.264 139.264-62.464 139.264-139.264 139.264z m0-235.52c-53.248 0-96.256 43.008-96.256 96.256s43.008 96.256 96.256 96.256 96.256-43.008 96.256-96.256-43.008-96.256-96.256-96.256z" p-id="24613"></path><path d="M852.992 309.76m-139.264 0a139.264 139.264 0 1 0 278.528 0 139.264 139.264 0 1 0-278.528 0Z" fill="#3B5EED" p-id="24614"></path><path d="M852.992 470.528c-88.576 0-160.768-72.192-160.768-160.768s72.192-160.768 160.768-160.768S1013.76 221.184 1013.76 309.76s-72.192 160.768-160.768 160.768z m0-278.528c-65.024 0-117.76 52.736-117.76 117.76s52.736 117.76 117.76 117.76 117.76-52.736 117.76-117.76-52.736-117.76-117.76-117.76z" p-id="24615"></path><path d="M711.87968 584.2432l79.29344-174.29504 39.14752 17.80736-79.29856 174.29504zM464.39936 527.93856l28.75392-31.97952 126.40256 113.64864-28.75904 31.98464zM223.22176 626.76992l77.44-123.07456 36.4032 22.90688-77.44512 123.07456z" p-id="24616"></path></svg>