<?xml version="1.0" standalone="no"?><!DOCTYPE svg PUBLIC "-//W3C//DTD SVG 1.1//EN" "http://www.w3.org/Graphics/SVG/1.1/DTD/svg11.dtd"><svg t="1622189265282" class="icon" viewBox="0 0 1024 1024" version="1.1" xmlns="http://www.w3.org/2000/svg" p-id="8898" data-spm-anchor-id="a313x.7781069.0.i2" width="48" height="48" xmlns:xlink="http://www.w3.org/1999/xlink"><defs><style type="text/css"></style></defs><path d="M546.133333 68.266667h204.8a204.8 204.8 0 0 1 204.8 204.8v477.866666a204.8 204.8 0 0 1-204.8 204.8H546.133333V68.266667z m204.8 580.266666A85.333333 85.333333 0 1 0 750.933333 477.866667a85.333333 85.333333 0 0 0 0 170.666666zM477.866667 68.266667v887.466666H273.066667c-113.322667 0-204.8-85.333333-204.8-190.464V259.413333C68.266667 153.6 159.744 68.266667 273.066667 68.266667h204.8zM409.6 136.533333H273.066667c-76.458667 0-136.533333 55.978667-136.533334 122.197334v506.538666c0 66.218667 60.074667 122.197333 136.533334 122.197334h136.533333V136.533333zM273.066667 443.733333A85.333333 85.333333 0 1 1 273.066667 273.066667a85.333333 85.333333 0 0 1 0 170.666666z" p-id="8899" fill="#d81e06" data-spm-anchor-id="a313x.7781069.0.i1" class=""></path></svg>