<?xml version="1.0" standalone="no"?><!DOCTYPE svg PUBLIC "-//W3C//DTD SVG 1.1//EN" "http://www.w3.org/Graphics/SVG/1.1/DTD/svg11.dtd"><svg t="1632928144642" class="icon" viewBox="0 0 1024 1024" version="1.1" xmlns="http://www.w3.org/2000/svg" p-id="20073" data-darkreader-inline-fill="" xmlns:xlink="http://www.w3.org/1999/xlink" width="48" height="48"><defs><style type="text/css"></style></defs><path d="M899.2 976H124.8c-41.6 0-73.6-32-73.6-73.6V355.2c0-41.6 32-73.6 73.6-73.6h441.6l-67.2 67.2H288c-19.2 0-35.2 16-35.2 35.2v489.6c0 19.2 16 35.2 35.2 35.2h576c19.2 0 35.2-16 35.2-35.2V384c0-19.2-16-35.2-35.2-35.2h-80l67.2-67.2h48c41.6 0 73.6 32 73.6 73.6v550.4c0 38.4-32 70.4-73.6 70.4zM179.2 617.6H128c-9.6 0-19.2 9.6-19.2 19.2s9.6 19.2 19.2 19.2h51.2c9.6 0 19.2-9.6 19.2-19.2s-9.6-19.2-19.2-19.2zM908.8 163.2l-83.2-83.2 16-16c22.4-22.4 60.8-25.6 83.2 0 22.4 22.4 22.4 60.8 0 83.2l-16 16z m-89.6 89.6L736 169.6l60.8-60.8L880 192l-60.8 60.8z m-112-54.4l83.2 83.2-195.2 195.2c-22.4 22.4-112 54.4-121.6 41.6-9.6-9.6 16-99.2 41.6-124.8l192-195.2z m-96 320l118.4-118.4h99.2c9.6 0 19.2 9.6 19.2 19.2v416c0 9.6-9.6 19.2-19.2 19.2H326.4c-9.6 0-19.2-9.6-19.2-19.2v-416c0-9.6 9.6-19.2 19.2-19.2h124.8c-32 54.4-48 150.4-28.8 169.6 19.2 22.4 147.2-9.6 188.8-51.2z" fill="#7ADA97" p-id="20074" style="--darkreader-inline-fill: #2f7952;" data-darkreader-inline-fill=""></path></svg>