<?xml version="1.0" standalone="no"?><!DOCTYPE svg PUBLIC "-//W3C//DTD SVG 1.1//EN" "http://www.w3.org/Graphics/SVG/1.1/DTD/svg11.dtd"><svg t="1636976685812" class="icon" viewBox="0 0 1024 1024" version="1.1" xmlns="http://www.w3.org/2000/svg" p-id="4077" xmlns:xlink="http://www.w3.org/1999/xlink" width="48" height="48"><defs><style type="text/css"></style></defs><path d="M264.096 155.392h597.408c55.008 0 99.616 48.704 99.616 108.8v489.792c0 60.096-44.608 108.8-99.616 108.8H264.096c-55.008 0-99.584-48.704-99.584-108.8V264.192c0-60.096 44.608-108.8 99.584-108.8z m149.312 108.8c-27.488 0-49.792 24.384-49.792 54.4v380.896c0 30.112 22.304 54.4 49.792 54.4h398.304c27.488 0 49.792-24.384 49.792-54.4v-380.8c0-30.112-22.304-54.4-49.792-54.4H413.408z m-174.208 217.696c-13.696 0-24.896 12.192-24.896 27.2s11.104 27.2 24.896 27.2h49.792c13.696 0 24.896-12.192 24.896-27.2s-11.104-27.2-24.896-27.2H239.2zM89.792 264.192c13.696 0 24.896 12.192 24.896 27.2v408.896l-24.896 54.688-24.896-55.104V291.488c0-15.104 11.2-27.296 24.896-27.296z" p-id="4078" fill="#e08512"></path></svg>