<?xml version="1.0" standalone="no"?><!DOCTYPE svg PUBLIC "-//W3C//DTD SVG 1.1//EN" "http://www.w3.org/Graphics/SVG/1.1/DTD/svg11.dtd"><svg t="1622190548720" class="icon" viewBox="0 0 1024 1024" version="1.1" xmlns="http://www.w3.org/2000/svg" p-id="42599" xmlns:xlink="http://www.w3.org/1999/xlink" width="48" height="48"><defs><style type="text/css"></style></defs><path d="M512 512m-506 0a506 506 0 1 0 1012 0 506 506 0 1 0-1012 0Z" fill="#84DBFF" p-id="42600"></path><path d="M823.4 196.6c-4.8 0.6-117.4 16.8-148.8 48.2-32.2 32.2-35 81.8-6 110.8 13 13 30.6 20 49.8 20 1.6 0 3 0 4.6-0.2 20.8-1.2 40.8-10.4 56.4-26 31.4-31.4 47.6-144 48.2-148.8l0.6-4.8-4.8 0.8z" fill="#FF7058" p-id="42601"></path><path d="M660 362.4c-14.8-14.4-35.4-21.8-57.8-20.8-27.4 1.2-55 15.2-73.8 37.2l-17.2 20v49.4c0 35.6 29 64.4 64.4 64.4h49l23.2-19.8c21.6-18.4 34.4-44.2 35.2-71.2 1-22.8-7.4-44-23-59.2zM265.4 694.2l-3-4-54 63.2c-16.6 19.4-16.8 46.4-0.6 62.6 8 8 18.6 12 29.8 12 11.4 0 23-4.2 32.8-12.6l63.2-54-4-3c-24.4-18.2-46-39.8-64.2-64.2z" fill="#324A5E" p-id="42602"></path><path d="M813.8 529.6c-12.4-15.8-31-24.8-51-24.8h-187c-31.2 0-56.6-25.4-56.6-56.6v-187c0-20-9-38.6-24.8-51-15.4-12-34.8-16.4-53.6-12-151.2 36.2-254 175.4-244.2 331 10 160.2 138.2 288.4 298.4 298.4 6.8 0.4 13.6 0.6 20.2 0.6 147.4 0 276.2-100.2 310.8-244.8 4.4-18.8 0-38.4-12.2-53.8z" fill="#FFD05B" p-id="42603"></path><path d="M406.8 326m-45.8 0a45.8 45.8 0 1 0 91.6 0 45.8 45.8 0 1 0-91.6 0Z" fill="#324A5E" p-id="42604"></path><path d="M323.4 466.4m-45.8 0a45.8 45.8 0 1 0 91.6 0 45.8 45.8 0 1 0-91.6 0Z" fill="#4CDBC4" p-id="42605"></path><path d="M341.4 623.4m-45.8 0a45.8 45.8 0 1 0 91.6 0 45.8 45.8 0 1 0-91.6 0Z" fill="#2FB5A0" p-id="42606"></path><path d="M469.4 491.8c-36.6 0-66.4 29.8-66.4 66.4 0 36.6 29.8 66.4 66.4 66.4s66.4-29.8 66.4-66.4c0-36.6-29.8-66.4-66.4-66.4z" fill="#F1543F" p-id="42607"></path><path d="M452.6 730m-45.8 0a45.8 45.8 0 1 0 91.6 0 45.8 45.8 0 1 0-91.6 0Z" fill="#CED5E0" p-id="42608"></path><path d="M606.2 702m-45.8 0a45.8 45.8 0 1 0 91.6 0 45.8 45.8 0 1 0-91.6 0Z" fill="#FFFFFF" p-id="42609"></path><path d="M706.2 596.2m-45.8 0a45.8 45.8 0 1 0 91.6 0 45.8 45.8 0 1 0-91.6 0Z" fill="#FF7058" p-id="42610"></path></svg>