<?xml version="1.0" standalone="no"?><!DOCTYPE svg PUBLIC "-//W3C//DTD SVG 1.1//EN" "http://www.w3.org/Graphics/SVG/1.1/DTD/svg11.dtd"><svg t="1632927062992" class="icon" viewBox="0 0 1024 1024" version="1.1" xmlns="http://www.w3.org/2000/svg" p-id="46769" data-darkreader-inline-fill="" xmlns:xlink="http://www.w3.org/1999/xlink" width="48" height="48"><defs><style type="text/css"></style></defs><path d="M144.695652 634.434783h82.086957v82.086956h-82.086957v-82.086956z m482.782609-75.130435h-68.173913v68.173913h68.173913v-68.173913z m82.086956-80.695652h-68.173913v68.173913h68.173913v-68.173913z m0 162.782608h-68.173913v68.173913h68.173913v-68.173913z m80.695653-82.086956h-66.782609v68.173913h66.782609v-68.173913z m82.086956 82.086956h-68.173913v68.173913h68.173913v-68.173913zM75.130435 68.173913h215.652174V0H0v290.782609h68.173913V68.173913h6.956522zM950.26087 0H734.608696v68.173913h222.608695v222.608696h66.782609V0h-73.73913z m0 957.217391H734.608696v66.782609h289.391304V734.608696h-66.782609v222.608695h-6.956521zM68.173913 734.608696H0v289.391304h290.782609v-66.782609H68.173913V734.608696z m240.695652-262.956522h80.695652v82.086956h-80.695652v80.695653h80.695652v82.086956h-80.695652v-82.086956h-82.086956v-80.695653h82.086956v-82.086956z m80.695652-82.086957h82.086957v82.086957h-82.086957v-82.086957z m0 164.173913h82.086957v80.695653h-82.086957v-80.695653z m82.086957-244.869565h82.086956v80.695652h-82.086956v-80.695652z m0 162.782609h82.086956v82.086956h-82.086956v-82.086956z m0 162.782609h82.086956v82.086956h-82.086956v-82.086956z m82.086956-244.869566h80.695653v82.086957h-80.695653v-82.086957z" p-id="46770" fill="#c4b34b" style="--darkreader-inline-fill: #8f843c;" data-darkreader-inline-fill=""></path></svg>