<?xml version="1.0" standalone="no"?><!DOCTYPE svg PUBLIC "-//W3C//DTD SVG 1.1//EN" "http://www.w3.org/Graphics/SVG/1.1/DTD/svg11.dtd"><svg t="1622184458806" class="icon" viewBox="0 0 1024 1024" version="1.1" xmlns="http://www.w3.org/2000/svg" p-id="72421" xmlns:xlink="http://www.w3.org/1999/xlink" width="200" height="200"><defs><style type="text/css"></style></defs><path d="M385.7152 128c31.104 0.1536 59.2128 12.2368 89.8304 18.944l12.2624 3.2768c82.688 21.7088 192.256 33.5104 255.7184 106.752 82.816 95.5904 61.824 360.6528-100.0704 313.9072a203.8272 203.8272 0 0 1-34.2528-13.6448c-3.8912-36.6592 0.768-71.68-0.3328-107.3408a884.0704 884.0704 0 0 1 1.4592-29.1584c1.9712-40.192-1.5616-80.0512-1.8944-119.6544a75.8016 75.8016 0 0 0-1.3312-9.2416c-4.6336-22.528-19.0976-49.8688-41.6256-39.296-29.2864 15.6928-18.7392 55.552-19.1232 83.9424 0.128 3.4048 0.3328 6.784 0.5376 10.1888 0.9984 16.9728 2.5856 33.7664 2.5856 48.896V896h-14.9248c-40.2176-30.3872-113.6128-26.5216-149.2736-61.5936V199.8848v-14.7712a1071.6416 1071.6416 0 0 1 0.4608-42.5984L385.7152 128zM30.8992 733.5424c-3.8912-23.3984 11.3408-40.2944 27.776-52.4544l9.1392-7.0912c3.0208-2.3296 6.016-4.7104 8.8576-7.0912 3.6096-2.2528 7.2704-4.352 10.9568-6.4 81.5872-44.9024 186.7776-65.4592 275.2256-103.2448v92.3648a117.7088 117.7088 0 0 1-18.1504 10.9312c-33.1008 10.9568-65.792 19.8656-97.6128 32.4864-3.5584 1.408-7.0656 2.816-10.5984 4.3264-21.0432 9.1904-58.496 21.2736-52.6592 36.9664 8.192 22.9376 51.5072 18.0992 79.9744 10.8544 3.8656-1.024 7.7312-2.1248 11.5456-3.328 3.7888-1.1776 7.5776-2.4576 11.3408-3.7632 18.9184-7.3728 36.48-14.6176 54.784-20.6848 3.5584-1.2032 7.1168-2.3296 10.7008-3.3792 3.5328-1.0496 7.0912-1.9712 10.6752-2.7904-2.7392 30.5152 6.8352 73.7792-7.4752 92.3648-44.6976 4.0704-90.752 5.5552-134.5536 2.56a587.5456 587.5456 0 0 1-24.6784-2.2016 396.5952 396.5952 0 0 1-13.5168-1.5104 421.7088 421.7088 0 0 1-13.9008-1.92c-4.5312-0.8448-8.96-1.92-13.1584-2.816-4.3776-0.896-8.704-1.8176-12.9792-2.8416a295.0912 295.0912 0 0 1-59.008-20.1216 157.1584 157.1584 0 0 1-8.7808-4.48c-13.824-5.76-24.3712-19.0464-35.9424-28.6464a236.9024 236.9024 0 0 1-7.9616-8.0896z m0 0" fill="#003C89" p-id="72422"></path><path d="M992.6912 674.3552c7.0912 35.7888-23.3472 58.752-51.9424 71.1168-3.8656 2.0736-7.7568 4.096-11.6736 6.0672-105.8048 54.144-232.3712 86.8608-349.7472 129.0496v-92.3904c60.2624-29.4912 133.12-46.0032 196.8128-71.9616 3.7376-1.5616 7.4496-3.0976 11.136-4.7104a416.5632 416.5632 0 0 1 18.2016-9.0368c18.7136-8.0128 38.6304-14.08 55.0144-26.1376-17.5616-12.0832-38.656-20.5312-59.6224-17.3568-3.3536 0.256-6.6816 0.64-9.984 1.2032-4.3008 0.6144-8.5504 1.3568-12.7488 2.0992-4.2496 0.768-8.3968 1.6128-12.4928 2.4064a212.4032 212.4032 0 0 0-12.5952 2.7648c-58.5728 14.5408-115.6096 50.6112-173.7216 59.1616v-100.096c62.8992-22.0928 143.5392-32.2304 219.4176-26.9056 4.48 0.3072 8.9344 0.6656 13.3376 1.0752 17.9456 3.2 35.5072 3.2 53.0432 8.0384 4.1984 1.3056 8.3456 2.6624 13.1584 2.8672 4.2496 1.0496 8.4992 2.1504 12.7488 3.3536a322.1248 322.1248 0 0 1 47.8208 17.4848c8.832 4.4288 17.3056 9.3696 25.2672 14.976 2.6624 1.8432 5.2736 3.7888 7.808 5.8624 5.6064 3.7376 9.1136 8.5504 13.5936 13.1584 2.4576 2.6112 4.8384 5.2224 7.168 7.9104z m0 0" fill="#003C89" p-id="72423"></path></svg>