<?xml version="1.0" standalone="no"?><!DOCTYPE svg PUBLIC "-//W3C//DTD SVG 1.1//EN" "http://www.w3.org/Graphics/SVG/1.1/DTD/svg11.dtd"><svg t="1622189734629" class="icon" viewBox="0 0 1024 1024" version="1.1" xmlns="http://www.w3.org/2000/svg" p-id="6772" xmlns:xlink="http://www.w3.org/1999/xlink" width="48" height="48"><defs><style type="text/css"></style></defs><path d="M748.16 533.92l-29.696-76.64c0-0.896 0.416-16 0.416-23.808C718.848 302.4 659.008 170.656 512 170.656S305.152 302.4 305.152 433.472c0 7.808 0.384 22.912 0.416 23.808l-29.696 76.64c-8.096 21.984-16.224 44.8-22.048 64.416-28.032 93.408-18.944 132.064-12.032 132.896 14.848 1.824 57.76-70.304 57.76-70.304 0 41.824 20.832 96.352 65.792 135.68-16.8 5.408-37.472 13.664-50.688 23.776-11.936 9.12-10.464 18.4-8.288 22.176 9.376 16.416 161.696 10.464 205.664 5.344 43.936 5.12 196.224 11.104 205.664-5.376 2.144-3.744 3.616-13.024-8.288-22.144-13.28-10.112-33.92-18.336-50.784-23.712 45.024-39.392 65.792-93.952 65.792-135.712 0 0 42.976 72.16 57.824 70.304 6.912-0.864 16.128-39.584-12.064-132.96a1155.904 1155.904 0 0 0-22.016-64.384z m43.552 351.04c-15.904 27.808-35.552 38.048-61.344 45.088-10.24 2.784-21.248 4.608-33.888 5.888-18.784 1.92-42.08 2.784-68.832 2.72a1449.92 1449.92 0 0 1-120.928-5.312l5.312 0.384c-29.536 2.784-76.16 4.864-115.616 4.96l-7.296 0.032a689.28 689.28 0 0 1-64.288-2.976l2.72 0.192a214.944 214.944 0 0 1-35.296-6.208l1.472 0.32c-25.824-7.008-45.44-17.28-61.44-45.184a97.12 97.12 0 0 1-10.048-71.136l-0.128 0.672c-25.248-5.632-42.72-20.608-54.56-38.88a102.496 102.496 0 0 1-13.024-29.568l-0.16-0.736a168 168 0 0 1-4.96-47.488v0.288c0.544-33.504 7.968-75.168 22.688-124.256 5.984-19.872 13.952-43.008 24.224-70.624l23.584-61.024-0.096-8.544v-0.128c0-194.336 103.936-348.16 292.192-348.16 188.288 0 292.192 153.824 292.192 348.16l-0.032 8.672 24.032 62.112c9.6 25.856 17.632 49.184 23.712 69.376 14.848 49.056 22.272 90.848 22.816 124.416a173.568 173.568 0 0 1-5.024 47.264c-2.816 10.496-6.88 20.48-13.216 30.208-11.776 18.208-29.184 33.12-54.496 38.816a96.64 96.64 0 0 1-10.24 70.56z" p-id="6773" fill="#1296db"></path></svg>