<?xml version="1.0" standalone="no"?><!DOCTYPE svg PUBLIC "-//W3C//DTD SVG 1.1//EN" "http://www.w3.org/Graphics/SVG/1.1/DTD/svg11.dtd"><svg t="1632917726178" class="icon" viewBox="0 0 1024 1024" version="1.1" xmlns="http://www.w3.org/2000/svg" p-id="1562" data-darkreader-inline-fill="" xmlns:xlink="http://www.w3.org/1999/xlink" width="48" height="48"><defs><style type="text/css"></style></defs><path d="M889.31328 166.48192a145.41824 145.41824 0 0 0-31.9488-31.80544c-37.82656-27.5456-91.8528-27.5456-199.92576-27.5456H366.3872c-108.05248 0-162.07872 0-199.92576 27.5456a141.99808 141.99808 0 0 0-31.7952 31.80544c-27.55584 37.8368-27.55584 91.86304-27.55584 200.06912v290.89792c0 108.05248 0 162.048 27.5456 199.92576a145.41824 145.41824 0 0 0 31.80544 31.9488c37.8368 27.55584 91.86304 27.55584 199.92576 27.55584h291.05152c108.05248 0 162.048 0 199.92576-27.55584a149.27872 149.27872 0 0 0 31.9488-31.9488c27.56608-37.82656 27.56608-91.86304 27.56608-199.92576V366.55104c-0.04096-108.20608-0.04096-162.23232-27.56608-200.06912z m-407.1936 491.4176c0 25.32352 0 38.13376-4.11648 48.128a54.45632 54.45632 0 0 1-29.45024 29.45024c-10.00448 4.11648-22.66112 4.11648-48.13824 4.11648-25.32352 0-38.13376 0-48.128-4.11648a54.45632 54.45632 0 0 1-29.45024-29.44c-4.12672-10.00448-4.12672-22.81472-4.12672-48.13824V390.85056c0-30.6176 0-45.9264 5.89824-57.5488a54.9376 54.9376 0 0 1 23.84896-23.8592c11.60192-5.888 26.94144-5.888 57.41568-5.888h76.25728z m173.73184-158.8736a96.13312 96.13312 0 1 1 96.13312-96.13312 96.06144 96.06144 0 0 1-96 96.13312z" fill="#EF5350" p-id="1563" style="--darkreader-inline-fill: #94211f;" data-darkreader-inline-fill=""></path></svg>