<?xml version="1.0" standalone="no"?><!DOCTYPE svg PUBLIC "-//W3C//DTD SVG 1.1//EN" "http://www.w3.org/Graphics/SVG/1.1/DTD/svg11.dtd"><svg t="1632926621699" class="icon" viewBox="0 0 1024 1024" version="1.1" xmlns="http://www.w3.org/2000/svg" p-id="24624" data-darkreader-inline-fill="" xmlns:xlink="http://www.w3.org/1999/xlink" width="48" height="48"><defs><style type="text/css"></style></defs><path d="M0 0h1024v1024H0z" fill="#1296db" fill-opacity="0" p-id="24625" style="--darkreader-inline-fill: #1f79a8;" data-darkreader-inline-fill=""></path><path d="M240 224m32 0l0 0q32 0 32 32l0 560q0 32-32 32l0 0q-32 0-32-32l0-560q0-32 32-32Z" fill="#1296db" p-id="24626" style="--darkreader-inline-fill: #1f79a8;" data-darkreader-inline-fill=""></path><path d="M970.88 297.472l-200.96-12.992v245.184h200.96zM750.976 282.24L560 268.608v536.32l190.976-12.8zM970.88 776.96l-200.96 13.248V541.952h200.96z" fill="#1296db" p-id="24627" style="--darkreader-inline-fill: #1f79a8;" data-darkreader-inline-fill=""></path><path d="M496.064 224.064L496 226.432v651.2h32.128l466.24-34.56A32 32 0 0 0 1024 811.2v-550.4a32 32 0 0 0-29.632-31.872L530.368 194.56A32 32 0 0 0 496 224z m32 0.768l464 34.368c0.64 0 1.216 0.448 1.408 1.024l0.128 0.64v550.336c0 0.64-0.384 1.152-0.896 1.408l-0.64 0.192-465.152 34.432h-0.512v-620.8c0-0.768 0.512-1.28 1.088-1.472l0.64-0.128z" fill="#1296db" p-id="24628" style="--darkreader-inline-fill: #1f79a8;" data-darkreader-inline-fill=""></path><path d="M528 194.368v683.264h-31.808l-466.56-34.56A32 32 0 0 1 0 811.2v-550.4A32 32 0 0 1 29.632 228.928l466.56-34.56h31.808z m-30.4 652.864V224.768L31.872 259.2a1.6 1.6 0 0 0-1.344 1.024l-0.128 0.64v550.336c0 0.64 0.384 1.152 0.896 1.408l0.64 0.192 465.28 34.432h0.384z" fill="#1296db" p-id="24629" style="--darkreader-inline-fill: #1f79a8;" data-darkreader-inline-fill=""></path></svg>