<?xml version="1.0" standalone="no"?><!DOCTYPE svg PUBLIC "-//W3C//DTD SVG 1.1//EN" "http://www.w3.org/Graphics/SVG/1.1/DTD/svg11.dtd"><svg t="1623293300135" class="icon" viewBox="0 0 1024 1024" version="1.1" xmlns="http://www.w3.org/2000/svg" p-id="3964" xmlns:xlink="http://www.w3.org/1999/xlink" width="48" height="48"><defs><style type="text/css"></style></defs><path d="M1206.89777763 134.82666667c-5.34755555 0-9.55733333-4.32355555-9.55733333-9.55733334 0-8.76088889-6.37155555-16.72533333-15.13244445-17.63555555-9.89866667-0.91022222-18.432 6.94044445-18.432 16.72533333v0.91022222c0 5.34755555-4.32355555 9.55733333-9.55733333 9.55733334-8.76088889 0-16.72533333 6.37155555-17.63555556 15.13244444-0.91022222 9.89866667 6.94044445 18.432 16.72533334 18.432h0.91022222c5.34755555 0 9.55733333 4.32355555 9.55733333 9.55733334 0 8.76088889 6.37155555 16.72533333 15.13244445 17.63555555 9.89866667 0.91022222 18.432-6.94044445 18.432-16.72533333v-0.91022222c0-5.34755555 4.32355555-9.55733333 9.55733333-9.55733334h0.91022222c9.78488889 0 17.63555555-8.41955555 16.72533333-18.432-0.91022222-8.76088889-8.87466667-15.13244445-17.63555555-15.13244444zM1804.34488874 119.46666667c-5.34755555 0-9.55733333-4.32355555-9.55733334-9.55733334 0-8.76088889-6.37155555-16.72533333-15.13244444-17.63555555-9.89866667-0.91022222-18.432 6.94044445-18.432 16.72533333v0.91022222c0 5.34755555-4.32355555 9.55733333-9.55733333 9.55733334-8.76088889 0-16.72533333 6.37155555-17.63555556 15.13244444-0.91022222 9.89866667 6.94044445 18.432 16.72533333 18.432h0.91022223c5.34755555 0 9.55733333 4.32355555 9.55733333 9.55733334 0 8.76088889 6.37155555 16.72533333 15.13244444 17.63555555 9.89866667 0.91022222 18.432-6.94044445 18.432-16.72533333v-0.91022222c0-5.34755555 4.32355555-9.55733333 9.55733334-9.55733334h0.91022222c9.78488889 0 17.63555555-8.41955555 16.72533334-18.432-0.91022222-8.76088889-8.87466667-15.13244445-17.63555556-15.13244444zM1819.70488874 862.54933333c-5.34755555 0-9.55733333-4.32355555-9.55733334-9.55733333 0-8.76088889-6.37155555-16.72533333-15.13244444-17.63555555-9.89866667-0.91022222-18.432 6.94044445-18.432 16.72533333v0.91022222c0 5.34755555-4.32355555 9.55733333-9.55733333 9.55733333-8.76088889 0-16.72533333 6.37155555-17.63555556 15.13244445-0.91022222 9.89866667 6.94044445 18.432 16.72533333 18.432h0.91022223c5.34755555 0 9.55733333 4.32355555 9.55733333 9.55733333 0 8.76088889 6.37155555 16.72533333 15.13244444 17.63555556 9.89866667 0.91022222 18.432-6.94044445 18.432-16.72533334v-0.91022222c0-5.34755555 4.32355555-9.55733333 9.55733334-9.55733333h0.91022222c9.78488889 0 17.63555555-8.41955555 16.72533334-18.432-0.91022222-8.76088889-8.87466667-15.13244445-17.63555556-15.13244445z" fill="#9AD6E8" p-id="3965"></path><path d="M700.18844445 841.84177778c-2.61688889 0-5.23377778-0.68266667-7.62311112-2.048-4.77866667-2.73066667-7.62311111-7.85066667-7.62311111-13.312V624.52622222c0-5.46133333 2.95822222-10.58133333 7.73688889-13.312l177.152-100.69333333c2.38933333-1.36533333 5.00622222-2.048 7.62311111-2.048s5.34755555 0.68266667 7.73688889 2.048c4.66488889 2.73066667 7.62311111 7.73688889 7.62311111 13.19822222v200.47644444c0 5.46133333-2.95822222 10.58133333-7.62311111 13.312l-177.152 102.28622223c-2.61688889 1.36533333-5.23377778 2.048-7.85066666 2.048z" fill="#1E62A1" p-id="3966"></path><path d="M877.34044445 523.83288889v200.47644444l-177.152 102.28622222V624.52622222l177.152-100.69333333m0-30.72c-5.23377778 0-10.46755555 1.36533333-15.13244445 3.98222222l-177.152 100.69333334c-9.55733333 5.46133333-15.47377778 15.58755555-15.47377778 26.624v201.95555555c0 10.92266667 5.80266667 21.04888889 15.36 26.51022222 4.77866667 2.73066667 10.01244445 4.096 15.36 4.096 5.23377778 0 10.58133333-1.36533333 15.36-4.096l177.152-102.28622222c9.44355555-5.46133333 15.36-15.58755555 15.36-26.51022222v-200.24888889c0-10.92266667-5.80266667-21.04888889-15.24622222-26.51022222-4.89244445-2.84444445-10.24-4.20977778-15.58755555-4.20977778z" fill="#ffffff" p-id="3967"></path><path d="M700.18844445 639.88622222c-2.61688889 0-5.34755555-0.68266667-7.7368889-2.048-4.66488889-2.73066667-7.62311111-7.73688889-7.6231111-13.19822222V419.49866667c0-5.46133333 2.95822222-10.58133333 7.73688888-13.312l177.152-100.69333334c2.38933333-1.36533333 5.00622222-2.048 7.62311112-2.048s5.34755555 0.68266667 7.73688888 2.048c4.66488889 2.73066667 7.62311111 7.73688889 7.62311112 13.19822222v205.02755556c0 5.46133333-2.95822222 10.58133333-7.7368889 13.312L707.69777778 637.83822222c-2.27555555 1.36533333-4.89244445 2.048-7.50933333 2.048z" fill="#E5F1F9" p-id="3968"></path><path d="M877.34044445 318.80533333v205.02755556l-177.152 100.69333333V419.49866667l177.152-100.69333334m0-30.60622222c-5.23377778 0-10.46755555 1.36533333-15.13244445 3.98222222l-177.152 100.69333334c-9.55733333 5.46133333-15.47377778 15.58755555-15.47377778 26.624v205.02755555c0 10.92266667 5.80266667 21.04888889 15.24622223 26.51022223 4.77866667 2.73066667 10.12622222 4.20977778 15.36 4.20977777s10.46755555-1.36533333 15.13244444-3.98222222l177.152-100.69333333c9.55733333-5.46133333 15.47377778-15.58755555 15.47377778-26.624V318.80533333c0-10.92266667-5.80266667-21.04888889-15.24622222-26.51022222-4.66488889-2.73066667-10.01244445-4.096-15.36-4.096z" fill="#ffffff" p-id="3969"></path><path d="M677.09155555 439.97866667c-2.61688889 0-5.23377778-0.68266667-7.6231111-2.048l-4.55111112-2.61688889c-4.77866667-2.73066667-7.73688889-7.85066667-7.73688888-13.312s2.95822222-10.58133333 7.73688888-13.312l4.55111112-2.61688889c2.38933333-1.36533333 5.00622222-2.048 7.6231111-2.048s5.34755555 0.68266667 7.7368889 2.048c4.66488889 2.73066667 7.62311111 7.73688889 7.6231111 13.19822222v5.12c0 5.46133333-2.84444445 10.46755555-7.6231111 13.19822222-2.38933333 1.70666667-5.12 2.38933333-7.7368889 2.38933334z" fill="#FFDBA0" p-id="3970"></path><path d="M677.09155555 419.49866667v5.12l-4.5511111-2.61688889 4.5511111-2.50311111m0-30.60622222c-5.23377778 0-10.46755555 1.36533333-15.13244444 3.98222222l-4.55111111 2.61688888c-9.55733333 5.46133333-15.47377778 15.58755555-15.47377778 26.624s5.91644445 21.16266667 15.47377778 26.624l4.55111111 2.6168889c4.66488889 2.61688889 9.89866667 3.98222222 15.13244444 3.98222222 5.34755555 0 10.69511111-1.36533333 15.36-4.20977778 9.44355555-5.46133333 15.24622222-15.58755555 15.24622223-26.51022222v-5.12c0-10.92266667-5.80266667-21.04888889-15.24622223-26.51022222-4.66488889-2.73066667-10.01244445-4.096-15.36-4.096z" fill="#282F63" p-id="3971"></path><path d="M500.50844445 740.23822222c-2.61688889 0-5.34755555-0.68266667-7.7368889-2.048-4.66488889-2.73066667-7.62311111-7.73688889-7.6231111-13.19822222V720.21333333c0-5.46133333 2.84444445-10.46755555 7.6231111-13.19822222 2.38933333-1.36533333 5.00622222-2.048 7.7368889-2.048 2.61688889 0 5.23377778 0.68266667 7.6231111 2.048l4.20977778 2.38933334c4.77866667 2.73066667 7.73688889 7.85066667 7.73688889 13.312s-2.95822222 10.58133333-7.73688889 13.312l-4.20977778 2.38933333c-2.38933333 1.25155555-5.00622222 1.82044445-7.6231111 1.82044444z" fill="#FFDBA0" p-id="3972"></path><path d="M500.50844445 720.21333333l4.20977777 2.38933334-4.20977777 2.38933333V720.21333333m0-30.60622222c-5.34755555 0-10.69511111 1.36533333-15.36 4.20977778-9.44355555 5.46133333-15.24622222 15.58755555-15.24622223 26.51022222v4.77866667c0 10.92266667 5.80266667 21.04888889 15.24622223 26.51022222 4.77866667 2.73066667 10.12622222 4.20977778 15.36 4.20977778s10.46755555-1.36533333 15.13244444-3.98222223l4.20977778-2.38933333c9.55733333-5.46133333 15.47377778-15.58755555 15.47377778-26.624s-5.91644445-21.16266667-15.47377778-26.624l-4.20977778-2.38933333c-4.77866667-2.95822222-9.89866667-4.20977778-15.13244444-4.20977778z" fill="#282F63" p-id="3973"></path><path d="M323.584 841.728c-2.61688889 0-5.23377778-0.68266667-7.62311111-2.048l-176.92444444-102.17244445c-4.77866667-2.73066667-7.62311111-7.85066667-7.62311112-13.312V519.05422222c0-5.46133333 2.84444445-10.46755555 7.62311112-13.19822222 2.38933333-1.36533333 5.00622222-2.048 7.73688888-2.048 2.61688889 0 5.23377778 0.68266667 7.62311112 2.048L331.09333333 606.32177778c4.77866667 2.73066667 7.73688889 7.85066667 7.73688889 13.312v206.73422222c0 5.46133333-2.95822222 10.58133333-7.62311111 13.312-2.38933333 1.36533333-5.00622222 2.048-7.62311111 2.048z" fill="#194E8C" p-id="3974"></path><path d="M146.65955555 519.05422222l176.92444445 100.57955556v206.73422222l-176.92444445-102.17244445V519.05422222m0-30.60622222c-5.34755555 0-10.69511111 1.36533333-15.36 4.20977778-9.44355555 5.46133333-15.24622222 15.58755555-15.24622222 26.51022222v205.25511111c0 10.92266667 5.80266667 21.04888889 15.36 26.51022222L308.33777778 853.10577778c4.77866667 2.73066667 10.01244445 4.096 15.36 4.096 5.23377778 0 10.58133333-1.36533333 15.36-4.096 9.44355555-5.46133333 15.36-15.58755555 15.36-26.51022223V619.63377778c0-11.03644445-5.91644445-21.16266667-15.47377778-26.624l-176.92444445-100.57955556c-4.89244445-2.73066667-10.12622222-3.98222222-15.36-3.98222222z" fill="#ffffff" p-id="3975"></path><path d="M177.26577778 549.66044445l146.31822222 83.17155555v-13.19822222l-176.92444445-100.57955556v205.14133333l30.60622223 17.74933334z" fill="#194E8C" p-id="3976"></path><path d="M523.49155555 943.78666667c-2.61688889 0-5.23377778-0.68266667-7.6231111-2.048-4.77866667-2.73066667-7.62311111-7.85066667-7.62311112-13.312V724.992c0-5.46133333 2.95822222-10.58133333 7.73688889-13.312l176.58311111-100.46577778c2.38933333-1.36533333 5.00622222-2.048 7.62311112-2.048s5.34755555 0.68266667 7.73688888 2.048c4.66488889 2.73066667 7.62311111 7.73688889 7.62311112 13.19822223v201.95555555c0 5.46133333-2.95822222 10.58133333-7.62311112 13.312L531.34222222 941.62488889c-2.50311111 1.47911111-5.12 2.16177778-7.85066667 2.16177778z" fill="#E5F1F9" p-id="3977"></path><path d="M700.18844445 624.52622222v201.95555556L523.60533333 928.42666667V724.992l4.20977778-2.38933333 172.37333334-98.07644445m0-30.60622222c-5.23377778 0-10.46755555 1.36533333-15.13244445 3.98222222l-172.48711111 98.07644445-4.20977778 2.38933333c-9.55733333 5.46133333-15.47377778 15.58755555-15.47377778 26.624v203.54844445c0 10.92266667 5.80266667 21.04888889 15.36 26.51022222 4.77866667 2.73066667 10.01244445 4.096 15.36 4.096 5.23377778 0 10.58133333-1.36533333 15.36-4.096l176.58311112-101.94488889c9.44355555-5.46133333 15.36-15.58755555 15.36-26.51022223V624.52622222c0-10.92266667-5.80266667-21.04888889-15.24622223-26.51022222-4.89244445-2.73066667-10.12622222-4.096-15.47377777-4.096z" fill="#ffffff" p-id="3978"></path><path d="M527.70133333 737.96266667c-2.61688889 0-5.23377778-0.68266667-7.62311111-2.048l-4.20977777-2.38933334c-4.77866667-2.73066667-7.73688889-7.85066667-7.7368889-13.312V519.96444445c0-5.46133333 2.95822222-10.58133333 7.7368889-13.312l172.14577777-97.8488889c2.38933333-1.36533333 5.00622222-2.048 7.62311111-2.048s5.23377778 0.68266667 7.62311112 2.048l4.5511111 2.6168889c4.77866667 2.73066667 7.73688889 7.85066667 7.7368889 13.312V624.64c0 5.46133333-2.95822222 10.58133333-7.7368889 13.312l-172.4871111 98.07644445c-2.38933333 1.25155555-5.00622222 1.93422222-7.62311112 1.93422222z" fill="#E5F1F9" p-id="3979"></path><path d="M695.63733333 422.11555555l4.55111112 2.6168889V624.64l-172.48711112 98.07644445-4.20977778-2.38933334V519.96444445l172.14577778-97.8488889m0-30.60622222c-5.23377778 0-10.46755555 1.36533333-15.13244444 3.98222222l-172.14577778 97.8488889c-9.55733333 5.46133333-15.47377778 15.58755555-15.47377778 26.624v200.24888888c0 11.03644445 5.91644445 21.16266667 15.47377778 26.624l4.20977778 2.38933334c4.66488889 2.61688889 9.89866667 3.98222222 15.13244444 3.98222222 5.23377778 0 10.46755555-1.36533333 15.13244445-3.98222222l172.48711111-98.07644445c9.55733333-5.46133333 15.47377778-15.58755555 15.47377778-26.624V424.61866667c0-11.03644445-5.91644445-21.16266667-15.47377778-26.624l-4.55111111-2.61688889c-4.66488889-2.61688889-9.89866667-3.86844445-15.13244445-3.86844445z" fill="#ffffff" p-id="3980"></path><path d="M323.584 634.99377778c-2.61688889 0-5.23377778-0.68266667-7.62311111-2.048l-176.92444444-100.57955556c-4.77866667-2.73066667-7.73688889-7.85066667-7.7368889-13.312v-200.24888889c0-5.46133333 2.84444445-10.46755555 7.62311112-13.19822222 2.38933333-1.36533333 5.00622222-2.048 7.73688888-2.048 2.61688889 0 5.23377778 0.68266667 7.62311112 2.048L331.09333333 406.07288889c4.77866667 2.73066667 7.73688889 7.85066667 7.73688889 13.312v200.24888889c0 5.46133333-2.84444445 10.46755555-7.62311111 13.19822222-2.27555555 1.36533333-5.00622222 2.16177778-7.62311111 2.16177778z" fill="#FFD08B" p-id="3981"></path><path d="M146.65955555 318.80533333l176.92444445 100.57955556v200.24888889l-176.92444445-100.57955556v-200.24888889m0-30.60622222c-5.34755555 0-10.69511111 1.36533333-15.36 4.20977778-9.44355555 5.46133333-15.24622222 15.58755555-15.24622222 26.51022222v200.24888889c0 11.03644445 5.91644445 21.16266667 15.47377778 26.624L308.45155555 646.25777778c4.66488889 2.61688889 9.89866667 3.98222222 15.13244445 3.98222222 5.34755555 0 10.69511111-1.36533333 15.36-4.20977778 9.44355555-5.46133333 15.24622222-15.58755555 15.24622222-26.51022222v-200.24888889c0-11.03644445-5.91644445-21.16266667-15.47377777-26.624l-176.92444445-100.57955556c-4.66488889-2.61688889-9.89866667-3.86844445-15.13244445-3.86844444z" fill="#ffffff" p-id="3982"></path><path d="M177.26577778 341.78844445l146.31822222 83.17155555v-5.57511111l-176.92444445-100.57955556v200.24888889l30.60622223 17.408z" fill="#FFD08B" p-id="3983"></path><path d="M500.50844445 943.78666667c-2.61688889 0-5.23377778-0.68266667-7.62311112-2.048L315.84711111 839.68c-4.77866667-2.73066667-7.62311111-7.85066667-7.62311111-13.312V619.63377778c0-5.46133333 2.84444445-10.46755555 7.62311111-13.19822223 2.38933333-1.36533333 5.00622222-2.048 7.73688889-2.048 2.61688889 0 5.23377778 0.68266667 7.62311111 2.048l176.92444444 100.57955556c4.77866667 2.73066667 7.73688889 7.85066667 7.7368889 13.312v208.32711111c0 5.46133333-2.95822222 10.58133333-7.62311112 13.312-2.50311111 1.13777778-5.12 1.82044445-7.73688888 1.82044445z" fill="#E5F1F9" p-id="3984"></path><path d="M323.584 619.63377778L500.50844445 720.21333333v208.32711112l-176.92444445-102.17244445V619.63377778m0-30.60622223c-5.34755555 0-10.69511111 1.36533333-15.36 4.20977778-9.44355555 5.46133333-15.24622222 15.58755555-15.24622222 26.51022222v206.73422223c0 10.92266667 5.80266667 21.04888889 15.36 26.51022222l176.92444444 102.17244445c4.77866667 2.73066667 10.01244445 4.096 15.36 4.096 5.23377778 0 10.58133333-1.36533333 15.36-4.096 9.44355555-5.46133333 15.36-15.58755555 15.36-26.51022223V720.21333333c0-11.03644445-5.91644445-21.16266667-15.47377777-26.624l-176.92444445-100.57955555c-4.89244445-2.73066667-10.12622222-3.98222222-15.36-3.98222223z" fill="#ffffff" p-id="3985"></path><path d="M500.50844445 735.57333333c-2.61688889 0-5.23377778-0.68266667-7.62311112-2.048l-176.92444444-100.57955555c-4.77866667-2.73066667-7.73688889-7.85066667-7.73688889-13.312v-200.24888889c0-5.46133333 2.84444445-10.46755555 7.62311111-13.19822222 2.38933333-1.36533333 5.00622222-2.048 7.73688889-2.048 2.61688889 0 5.23377778 0.68266667 7.62311111 2.048l176.92444444 100.57955555c4.77866667 2.73066667 7.73688889 7.85066667 7.7368889 13.312v200.24888889c0 5.46133333-2.84444445 10.46755555-7.62311112 13.19822222-2.50311111 1.36533333-5.12 2.048-7.73688888 2.048z" fill="#E5F1F9" p-id="3986"></path><path d="M323.584 419.38488889L500.50844445 519.96444445v200.24888888l-176.92444445-100.57955555v-200.24888889m0-30.60622222c-5.34755555 0-10.69511111 1.36533333-15.36 4.20977778-9.44355555 5.46133333-15.24622222 15.58755555-15.24622222 26.51022222v200.24888888c0 11.03644445 5.91644445 21.16266667 15.47377777 26.624l176.92444445 100.57955556c4.66488889 2.61688889 9.89866667 3.98222222 15.13244445 3.98222222 5.34755555 0 10.69511111-1.36533333 15.36-4.20977778 9.44355555-5.46133333 15.24622222-15.58755555 15.24622222-26.51022222V519.96444445c0-11.03644445-5.91644445-21.16266667-15.47377778-26.624l-176.92444444-100.57955556c-4.66488889-2.73066667-9.89866667-3.98222222-15.13244445-3.98222222z" fill="#ffffff" p-id="3987"></path><path d="M506.31111111 318.69155555c-2.61688889 0-5.23377778-0.68266667-7.62311111-2.048l-176.128-100.12444444c-4.77866667-2.73066667-7.73688889-7.73688889-7.73688889-13.312 0-5.46133333 2.95822222-10.58133333 7.62311111-13.312l185.68533333-107.17866666c2.38933333-1.36533333 5.00622222-2.048 7.62311112-2.048s5.23377778 0.68266667 7.62311111 2.048l176.35555555 101.8311111c4.77866667 2.73066667 7.62311111 7.85066667 7.62311112 13.312 0 5.46133333-2.95822222 10.58133333-7.7368889 13.312l-185.7991111 105.58577778c-2.27555555 1.36533333-4.89244445 1.93422222-7.50933334 1.93422222z" fill="#FFD08B" p-id="3988"></path><path d="M515.86844445 96.02844445l176.24177777 101.71733333L506.31111111 303.44533333l-176.128-100.12444444 185.68533334-107.29244444m0-30.60622223c-5.23377778 0-10.58133333 1.36533333-15.36 4.096l-185.68533334 107.17866667c-9.55733333 5.46133333-15.36 15.70133333-15.36 26.624 0 11.03644445 5.91644445 21.16266667 15.47377778 26.51022222l176.128 100.12444444c4.66488889 2.61688889 9.89866667 3.98222222 15.13244444 3.98222223 5.23377778 0 10.46755555-1.36533333 15.13244445-3.98222223l185.79911111-105.58577777c9.55733333-5.46133333 15.47377778-15.58755555 15.47377778-26.51022223 0-11.03644445-5.80266667-21.16266667-15.36-26.624l-176.24177778-101.71733333c-4.55111111-2.73066667-9.89866667-4.096-15.13244444-4.096z" fill="#ffffff" p-id="3989"></path><path d="M360.78933333 218.56711111l183.63733334-106.04088889-28.55822222-16.49777777-185.68533334 107.29244444 176.128 100.12444444 1.82044444-1.13777778z" fill="#FFD08B" p-id="3990"></path><path d="M334.16533333 416.65422222c-2.61688889 0-5.23377778-0.68266667-7.62311111-2.048l-172.14577777-97.84888889c-4.77866667-2.73066667-7.73688889-7.85066667-7.7368889-13.312V300.37333333c0-5.46133333 2.95822222-10.58133333 7.62311112-13.312L322.44622222 190.00888889c2.38933333-1.36533333 5.00622222-2.048 7.62311111-2.048s5.23377778 0.68266667 7.62311112 2.048l176.128 100.12444444c4.77866667 2.73066667 7.73688889 7.85066667 7.73688888 13.312s-2.95822222 10.58133333-7.73688888 13.312l-172.14577778 97.84888889c-2.27555555 1.36533333-4.89244445 2.048-7.50933334 2.048z" fill="#E5F1F9" p-id="3991"></path><path d="M330.18311111 203.32088889l176.128 100.12444444-172.14577778 97.84888889-172.14577778-97.84888889V300.37333333l168.16355556-97.05244444m0-30.72c-5.34755555 0-10.58133333 1.36533333-15.36 4.096L146.77333333 273.74933333c-9.44355555 5.46133333-15.36 15.58755555-15.36 26.51022222v3.072c0 11.03644445 5.91644445 21.16266667 15.47377778 26.624l172.14577778 97.8488889c4.66488889 2.61688889 9.89866667 3.98222222 15.13244444 3.98222222s10.46755555-1.36533333 15.13244445-3.98222222l172.14577777-97.8488889c9.55733333-5.46133333 15.47377778-15.58755555 15.47377778-26.624s-5.91644445-21.16266667-15.47377778-26.624l-176.128-100.12444444c-4.66488889-2.61688889-9.89866667-3.98222222-15.13244444-3.98222222z" fill="#ffffff" p-id="3992"></path><path d="M187.96088889 315.61955555l168.04977778-97.05244444-25.82755556-15.24622222L162.01955555 300.37333333v3.072l25.94133334 14.67733334z" fill="#DDEDF7" p-id="3993"></path><path d="M688.01422222 422.00177778c-2.61688889 0-5.23377778-0.68266667-7.62311111-2.048l-181.70311111-103.31022223c-4.77866667-2.73066667-7.73688889-7.85066667-7.73688889-13.312s2.95822222-10.58133333 7.73688889-13.312l185.79911111-105.58577777c2.38933333-1.36533333 5.00622222-2.048 7.62311111-2.048s5.23377778 0.68266667 7.62311111 2.048l177.60711112 102.51377777c4.77866667 2.73066667 7.62311111 7.85066667 7.6231111 13.312v3.072c0 5.46133333-2.95822222 10.58133333-7.73688888 13.312l-181.70311112 103.31022223c-2.38933333 1.47911111-5.00622222 2.048-7.50933333 2.048z" fill="#1E62A1" p-id="3994"></path><path d="M691.99644445 197.74577778L869.60355555 300.37333333v3.072l-177.152 100.69333334-4.5511111 2.61688888L506.31111111 303.44533333l185.68533334-105.69955555m0-30.60622223c-5.23377778 0-10.46755555 1.36533333-15.13244445 3.98222223l-185.79911111 105.58577777c-9.55733333 5.46133333-15.47377778 15.58755555-15.47377778 26.624s5.91644445 21.16266667 15.47377778 26.624l181.70311111 103.31022223c4.66488889 2.61688889 9.89866667 3.98222222 15.13244445 3.98222222 5.23377778 0 10.46755555-1.36533333 15.13244444-3.98222222l4.55111111-2.61688889L884.736 329.95555555c9.55733333-5.46133333 15.47377778-15.58755555 15.47377778-26.624V300.37333333c0-10.92266667-5.80266667-21.04888889-15.36-26.51022222l-177.60711111-102.51377778c-4.66488889-2.84444445-9.89866667-4.20977778-15.24622222-4.20977778z" fill="#ffffff" p-id="3995"></path><path d="M515.86844445 519.96444445c-2.61688889 0-5.23377778-0.68266667-7.62311112-2.048L326.54222222 414.60622222c-4.77866667-2.73066667-7.73688889-7.85066667-7.73688889-13.312s2.95822222-10.58133333 7.73688889-13.312l172.14577778-97.84888889c2.38933333-1.36533333 5.00622222-2.048 7.62311111-2.048s5.23377778 0.68266667 7.62311111 2.048l181.70311111 103.31022222c4.77866667 2.73066667 7.73688889 7.85066667 7.73688889 13.312s-2.95822222 10.58133333-7.73688889 13.312l-172.14577778 97.8488889c-2.38933333 1.36533333-5.00622222 2.048-7.6231111 2.048z" fill="#FFD08B" p-id="3996"></path><path d="M506.31111111 303.44533333l181.70311111 103.31022222-172.14577777 97.8488889-176.92444445-100.57955556v-3.41333334 3.41333334l-4.77866667-2.73066667 172.14577778-97.84888889m0-30.72c-5.23377778 0-10.46755555 1.36533333-15.13244444 3.98222222l-172.14577778 97.8488889c-9.55733333 5.46133333-15.47377778 15.58755555-15.47377778 26.624s5.91644445 21.16266667 15.47377778 26.624l4.77866666 2.73066666 176.92444445 100.57955556c4.66488889 2.61688889 9.89866667 3.98222222 15.13244445 3.98222222 5.23377778 0 10.46755555-1.36533333 15.13244444-3.98222222l172.14577778-97.84888889c9.55733333-5.46133333 15.47377778-15.58755555 15.47377778-26.624s-5.91644445-21.16266667-15.47377778-26.624l-181.70311112-103.31022223c-4.66488889-2.61688889-9.89866667-3.98222222-15.13244444-3.98222222z" fill="#ffffff" p-id="3997"></path></svg>