<?xml version="1.0" standalone="no"?><!DOCTYPE svg PUBLIC "-//W3C//DTD SVG 1.1//EN" "http://www.w3.org/Graphics/SVG/1.1/DTD/svg11.dtd"><svg t="1623293229383" class="icon" viewBox="0 0 1024 1024" version="1.1" xmlns="http://www.w3.org/2000/svg" p-id="2997" xmlns:xlink="http://www.w3.org/1999/xlink" width="48" height="48"><defs><style type="text/css"></style></defs><path d="M3.821419 525.657597a34.07626 34.07626 0 0 0 6.947518 11.434605l118.491803 116.763812c4.607975 4.536864 10.559943 15.239029 16.533244 15.338583l379.837942 347.852338a24.078092 24.078092 0 0 0 34.21137-0.355553l453.401989-465.505034a24.433645 24.433645 0 0 0-0.348443-34.410481l-118.498913-116.763812a24.092314 24.092314 0 0 0-30.442502-2.801762 24.497645 24.497645 0 0 0-3.768869 3.157316l-325.246238 333.928858-232.226297-212.670848 339.461272-342.078147a24.433645 24.433645 0 0 0-0.348443-34.41048L523.327939 28.37318a24.078092 24.078092 0 0 0-34.20426 0.355553L133.690938 386.885015a24.049648 24.049648 0 0 0-7.217739 5.03464L10.413384 502.681722a21.702994 21.702994 0 0 0-6.591965 22.975875z" fill="#2F5FAB" p-id="2998"></path><path d="M823.038315 336.005291L704.539402 219.24859a24.085203 24.085203 0 0 0-34.20426 0.355554L554.268215 338.807054a24.433645 24.433645 0 0 0 0.355554 34.41048L673.115572 489.952902a24.085203 24.085203 0 0 0 34.204259-0.355554l116.074038-119.181577a24.440757 24.440757 0 0 0-0.355554-34.41048z m-172.799064 172.322622l-118.47758-116.763812a24.092314 24.092314 0 0 0-34.211371 0.355554L381.483374 511.129676a24.433645 24.433645 0 0 0 0.355553 34.41048l118.491803 116.763812a24.092314 24.092314 0 0 0 34.21137-0.355554l116.066927-119.21002a24.433645 24.433645 0 0 0-0.348443-34.410481zM312.228638 113.777161L205.128773 8.255955a21.774104 21.774104 0 0 0-30.918943 0.32711L69.307287 116.322925a22.094103 22.094103 0 0 0 0.319998 31.103832l107.099864 105.528317a21.766993 21.766993 0 0 0 30.918944-0.319998l104.902543-107.739861A22.094103 22.094103 0 0 0 312.228638 113.777161z" fill="#96C11A" p-id="2999"></path></svg>