<?xml version="1.0" standalone="no"?><!DOCTYPE svg PUBLIC "-//W3C//DTD SVG 1.1//EN" "http://www.w3.org/Graphics/SVG/1.1/DTD/svg11.dtd"><svg t="1622691791885" class="icon" viewBox="0 0 1024 1024" version="1.1" xmlns="http://www.w3.org/2000/svg" p-id="5519" data-darkreader-inline-fill="" xmlns:xlink="http://www.w3.org/1999/xlink" width="48" height="48"><defs><style type="text/css"></style></defs><path d="M834.61559 807.715316h25.682254c0 75.147848-12.128286 129.842941-36.384857 164.087277C799.656416 1006.046929 768.982277 1023.169097 731.882582 1023.169097c-29.965292 0-58.740518-11.17783-86.325678-33.531495-27.58516-22.353664-52.316959-82.995092-74.195396-181.924283L510.003246 530.907266 297.404823 1013.181332H162.568l305.345662-657.778784c-16.169716-85.133616-35.670019-148.153178-58.500907-189.056689-22.828892-40.903512-51.12889-61.354269-84.897999-61.354269-27.109933 0-50.651666 10.223382-70.629192 30.676136s-31.388977 52.554573-34.244336 96.313443H193.958974c1.425683-69.916351 15.456875-125.80151 42.09158-167.655477S295.979141 1.310124 335.930201 0.830903c25.68425 0 49.938825 10.462992 72.769713 31.388977 22.828892 20.927982 42.804422 57.075225 59.926589 108.443725 17.122168 51.364507 43.51926 157.428101 79.191275 318.186789l50.653663 226.154388c20.450757 93.697695 41.85197 156.240033 64.207631 187.631006 22.353664 31.390974 49.463597 47.323077 81.329799 47.800301 53.269411 0 83.472316-37.572925 90.604722-112.720773z" p-id="5520" fill="#14b1d1" style="--darkreader-inline-fill:#218ca1;" data-darkreader-inline-fill=""></path></svg>