<?xml version="1.0" standalone="no"?><!DOCTYPE svg PUBLIC "-//W3C//DTD SVG 1.1//EN" "http://www.w3.org/Graphics/SVG/1.1/DTD/svg11.dtd"><svg t="1646027205330" class="icon" viewBox="0 0 1024 1024" version="1.1" xmlns="http://www.w3.org/2000/svg" p-id="8399" xmlns:xlink="http://www.w3.org/1999/xlink" width="48" height="48"><defs><style type="text/css"></style></defs><path d="M0 224h1024v576H0V224m15.52 16c0.16 181.28 0.64 362.56 0.16 544h992.64c-0.32-181.28-0.16-362.72 0-544H15.52z" p-id="8400" fill="#e25b36"></path><path d="M144 405.12c85.6-8.32 174.08-11.68 258.72 5.76-58.56 28.32-124.32 16-186.72 16.48-6.24 20.16-16.48 41.28-6.08 62.08 59.84 4.8 120 1.12 180.16 1.76l0.96 88.96c-6.24 9.12-18.72 27.36-24.96 36.32-76.16-1.76-153.12 7.2-228.64-4l-12-26.08c60.64-0.64 121.12 0 181.6-2.88 0.16-15.2 0.48-45.44 0.48-60.64-62.08 0.32-124.32 0.16-186.56-1.44 1.76-39.36-6.56-84.64 23.04-116.32zM407.68 394.72c54.56 17.92 95.36 68 150.4 80 48-22.56 89.6-56.8 136.64-81.44 4.8 74.56 2.08 149.28 2.56 224-27.52-0.16-54.88-0.32-82.24-0.64-0.16-35.52-0.16-71.04 0.16-106.56-39.04 26.56-86.72 25.92-126.08-0.16 0.32 35.84 0.32 71.68 0.16 107.36-27.52-0.16-55.04-0.32-82.56-0.64-0.8-74.08-0.48-148 0.96-221.92zM714.88 402.4c29.6-1.44 59.04-2.08 88.64-3.2 0 62.24 0.16 124.32-0.16 186.4 48.32 0 96.8-0.48 145.12 1.28-6.56 6.88-19.68 20.8-26.24 27.84-68.8 6.72-138.08 1.28-207.04 0.96 0.32-71.2 0.48-142.24-0.32-213.28z" p-id="8401" fill="#e25b36"></path></svg>