<?xml version="1.0" standalone="no"?><!DOCTYPE svg PUBLIC "-//W3C//DTD SVG 1.1//EN" "http://www.w3.org/Graphics/SVG/1.1/DTD/svg11.dtd"><svg t="1623293805829" class="icon" viewBox="0 0 1024 1024" version="1.1" xmlns="http://www.w3.org/2000/svg" p-id="7593" xmlns:xlink="http://www.w3.org/1999/xlink" width="48" height="48"><defs><style type="text/css"></style></defs><path d="M108.544 393.728h53.248v142.336c0 22.528 0.512 37.376 2.048 44.032 2.048 10.752 7.68 19.456 16.384 26.112s20.48 9.728 35.328 9.728c14.848 0 26.624-3.072 34.304-9.216s12.288-13.824 13.824-22.528c1.536-9.216 2.56-24.064 2.56-44.544v-145.92h53.248v138.24c0 31.744-1.536 53.76-4.096 67.072-3.072 12.8-8.192 24.064-15.872 32.768s-17.92 15.872-30.72 21.504c-12.8 5.12-29.696 8.192-50.688 8.192-25.088 0-44.032-3.072-57.344-8.704-12.8-5.632-23.04-13.312-30.72-22.528s-12.288-18.944-14.848-29.184c-3.584-14.848-5.12-37.376-5.12-66.56v-140.8z m251.392 262.656V393.728h51.712l107.52 175.616V393.728h49.152v263.168h-53.248L409.6 484.864v171.52h-49.664z m248.832 0V393.728h53.248v263.168h-53.248z m61.952 0l90.112-137.216-81.408-125.952h61.952l52.736 84.48 51.712-84.48h61.44l-81.92 128 90.112 135.168h-64l-58.368-91.136-58.368 91.136h-64z" fill="#BAFF8B" p-id="7594"></path></svg>