<?xml version="1.0" standalone="no"?><!DOCTYPE svg PUBLIC "-//W3C//DTD SVG 1.1//EN" "http://www.w3.org/Graphics/SVG/1.1/DTD/svg11.dtd"><svg t="1630925038717" class="icon" viewBox="0 0 1024 1024" version="1.1" xmlns="http://www.w3.org/2000/svg" p-id="2208" data-darkreader-inline-fill="" width="48" height="48" xmlns:xlink="http://www.w3.org/1999/xlink"><defs><style type="text/css"></style></defs><path d="M231.168 833.152A424.789333 424.789333 0 0 0 512 938.666667a425.258667 425.258667 0 0 0 280.96-105.514667c66.730667-67.968-153.472-309.632-280.96-405.930667-127.36 96.298667-347.733333 337.962667-280.832 405.930667z m396.8-512.213333c88.917333 105.301333 266.112 366.72 216.064 459.093333A424.618667 424.618667 0 0 0 938.666667 512.128a424.874667 424.874667 0 0 0-126.933334-303.488s-0.938667-0.768-2.901333-1.493333a29.269333 29.269333 0 0 0-10.026667-1.621334c-21.034667 0-70.570667 15.445333-170.837333 115.413334zM215.253333 207.189333c-2.048 0.725333-2.901333 1.450667-3.072 1.493334A425.088 425.088 0 0 0 85.333333 512.128c0 101.504 35.498667 194.602667 94.634667 267.861333C130.133333 687.36 307.2 426.154667 396.117333 320.981333 295.850667 220.928 246.229333 205.568 225.28 205.568a25.770667 25.770667 0 0 0-9.984 1.664v-0.085333zM512 211.584S407.296 150.314667 325.546667 147.413333c-32.128-1.152-51.712 10.496-54.101334 12.032C347.690667 108.288 428.757333 85.333333 511.445333 85.333333H512c82.986667 0 163.754667 22.954667 240.554667 74.112-2.389333-1.621333-21.845333-13.226667-54.016-12.032-81.792 2.901333-186.538667 64-186.538667 64v0.170667z" p-id="2209" fill="#69c53f" style="--darkreader-inline-fill: #67963b;" data-darkreader-inline-fill=""></path></svg>